<?xml version="1.0" encoding="UTF-8" standalone="no"?><svg xmlns="http://www.w3.org/2000/svg" xmlns:xlink="http://www.w3.org/1999/xlink" contentScriptType="application/ecmascript" contentStyleType="text/css" height="317px" preserveAspectRatio="none" style="width:418px;height:317px;" version="1.1" viewBox="0 0 418 317" width="418px" zoomAndPan="magnify"><defs><filter height="300%" id="fv6r6hm95mnd4" width="300%" x="-1" y="-1"><feGaussianBlur result="blurOut" stdDeviation="2.0"/><feColorMatrix in="blurOut" result="blurOut2" type="matrix" values="0 0 0 0 0 0 0 0 0 0 0 0 0 0 0 0 0 0 .4 0"/><feOffset dx="4.0" dy="4.0" in="blurOut2" result="blurOut3"/><feBlend in="SourceGraphic" in2="blurOut3" mode="normal"/></filter></defs><g><text fill="#000000" font-family="sans-serif" font-size="18" lengthAdjust="spacingAndGlyphs" textLength="394" x="12" y="26.708">Communication Manager Sequence Diagram</text><rect fill="#FFFFFF" filter="url(#fv6r6hm95mnd4)" height="60.2656" style="stroke: #383838; stroke-width: 1.0;" width="10" x="237" y="152.3828"/><rect fill="#FFFFFF" filter="url(#fv6r6hm95mnd4)" height="17.1328" style="stroke: #000000; stroke-width: 2.0;" width="135" x="120.5" y="167.3828"/><line style="stroke: #383838; stroke-width: 1.0; stroke-dasharray: 5.0,5.0;" x1="138.5" x2="138.5" y1="121.25" y2="230.6484"/><line style="stroke: #383838; stroke-width: 1.0; stroke-dasharray: 5.0,5.0;" x1="241.5" x2="241.5" y1="121.25" y2="230.6484"/><text fill="#000000" font-family="sans-serif" font-size="14" lengthAdjust="spacingAndGlyphs" textLength="50" x="110.5" y="117.9482">Factory</text><ellipse cx="138.5" cy="47.9531" fill="#F8F8F8" filter="url(#fv6r6hm95mnd4)" rx="8" ry="8" style="stroke: #383838; stroke-width: 2.0;"/><path d="M138.5,55.9531 L138.5,82.9531 M125.5,63.9531 L151.5,63.9531 M138.5,82.9531 L125.5,97.9531 M138.5,82.9531 L151.5,97.9531 " fill="none" filter="url(#fv6r6hm95mnd4)" style="stroke: #383838; stroke-width: 2.0;"/><text fill="#000000" font-family="sans-serif" font-size="14" lengthAdjust="spacingAndGlyphs" textLength="50" x="110.5" y="242.6436">Factory</text><ellipse cx="138.5" cy="255.9453" fill="#F8F8F8" filter="url(#fv6r6hm95mnd4)" rx="8" ry="8" style="stroke: #383838; stroke-width: 2.0;"/><path d="M138.5,263.9453 L138.5,290.9453 M125.5,271.9453 L151.5,271.9453 M138.5,290.9453 L125.5,305.9453 M138.5,290.9453 L151.5,305.9453 " fill="none" filter="url(#fv6r6hm95mnd4)" style="stroke: #383838; stroke-width: 2.0;"/><rect fill="#F8F8F8" filter="url(#fv6r6hm95mnd4)" height="30.2969" style="stroke: #383838; stroke-width: 1.5;" width="127" x="176.5" y="85.9531"/><text fill="#000000" font-family="sans-serif" font-size="14" lengthAdjust="spacingAndGlyphs" textLength="113" x="183.5" y="105.9482">CommsManager</text><rect fill="#F8F8F8" filter="url(#fv6r6hm95mnd4)" height="30.2969" style="stroke: #383838; stroke-width: 1.5;" width="127" x="176.5" y="229.6484"/><text fill="#000000" font-family="sans-serif" font-size="14" lengthAdjust="spacingAndGlyphs" textLength="113" x="183.5" y="249.6436">CommsManager</text><rect fill="#FFFFFF" filter="url(#fv6r6hm95mnd4)" height="60.2656" style="stroke: #383838; stroke-width: 1.0;" width="10" x="237" y="152.3828"/><polygon fill="#383838" points="225,148.3828,235,152.3828,225,156.3828,229,152.3828" style="stroke: #383838; stroke-width: 1.0;"/><line style="stroke: #383838; stroke-width: 1.0;" x1="138.5" x2="231" y1="152.3828" y2="152.3828"/><text fill="#000000" font-family="sans-serif" font-size="13" lengthAdjust="spacingAndGlyphs" textLength="72" x="145.5" y="147.3169">startServer</text><path d="M120.5,167.3828 L197.5,167.3828 L197.5,174.3828 L187.5,184.3828 L120.5,184.3828 L120.5,167.3828 " fill="#EEEEEE" style="stroke: #000000; stroke-width: 1.0;"/><rect fill="none" height="17.1328" style="stroke: #000000; stroke-width: 2.0;" width="135" x="120.5" y="167.3828"/><text fill="#000000" font-family="sans-serif" font-size="13" font-weight="bold" lengthAdjust="spacingAndGlyphs" textLength="32" x="135.5" y="180.4497">loop</text><text fill="#000000" font-family="sans-serif" font-size="11" font-weight="bold" lengthAdjust="spacingAndGlyphs" textLength="38" x="212.5" y="179.5933">[loop]</text><polygon fill="#383838" points="230,208.6484,240,212.6484,230,216.6484,234,212.6484" style="stroke: #383838; stroke-width: 1.0;"/><line style="stroke: #383838; stroke-width: 1.0;" x1="138.5" x2="236" y1="212.6484" y2="212.6484"/><text fill="#000000" font-family="sans-serif" font-size="13" lengthAdjust="spacingAndGlyphs" textLength="70" x="145.5" y="207.5825">stopServer</text><!--MD5=[2153e2f19afecfedbdc89e0d57fc6805]
@startuml

skinparam linetype ortho
skinparam Monochrome true
skinparam classAttributeIconSize 0

title Communication Manager Sequence Diagram
actor Factory


Factory-> CommsManager: startServer
activate CommsManager
loop loop

end

Factory-> CommsManager: stopServer

deactivate CommsManager

@enduml

PlantUML version 1.2020.02(Sun Mar 01 10:22:07 GMT 2020)
(GPL source distribution)
Java Runtime: OpenJDK Runtime Environment
JVM: OpenJDK 64-Bit Server VM
Java Version: 11.0.9+11-Ubuntu-0ubuntu1
Operating System: Linux
Default Encoding: ANSI_X3.4-1968
Language: en
Country: US
--></g></svg>