<?xml version="1.0" encoding="UTF-8" standalone="no"?><svg xmlns="http://www.w3.org/2000/svg" xmlns:xlink="http://www.w3.org/1999/xlink" contentScriptType="application/ecmascript" contentStyleType="text/css" height="688px" preserveAspectRatio="none" style="width:743px;height:688px;" version="1.1" viewBox="0 0 743 688" width="743px" zoomAndPan="magnify"><defs><filter height="300%" id="f1jiksnsho9ofx" width="300%" x="-1" y="-1"><feGaussianBlur result="blurOut" stdDeviation="2.0"/><feColorMatrix in="blurOut" result="blurOut2" type="matrix" values="0 0 0 0 0 0 0 0 0 0 0 0 0 0 0 0 0 0 .4 0"/><feOffset dx="4.0" dy="4.0" in="blurOut2" result="blurOut3"/><feBlend in="SourceGraphic" in2="blurOut3" mode="normal"/></filter></defs><g><rect fill="#FFFFFF" filter="url(#f1jiksnsho9ofx)" height="474.6641" style="stroke: #383838; stroke-width: 1.0;" width="10" x="171" y="117.4297"/><rect fill="#FFFFFF" filter="url(#f1jiksnsho9ofx)" height="403.3984" style="stroke: #383838; stroke-width: 1.0;" width="10" x="317.5" y="188.6953"/><rect fill="#FFFFFF" filter="url(#f1jiksnsho9ofx)" height="321" style="stroke: #383838; stroke-width: 1.0;" width="10" x="463.5" y="271.0938"/><rect fill="#FFFFFF" filter="url(#f1jiksnsho9ofx)" height="29.1328" style="stroke: #383838; stroke-width: 1.0;" width="10" x="627.5" y="395.625"/><rect fill="#FFFFFF" filter="url(#f1jiksnsho9ofx)" height="380.3984" style="stroke: #000000; stroke-width: 2.0;" width="719.5" x="13" y="203.6953"/><rect fill="#FFFFFF" filter="url(#f1jiksnsho9ofx)" height="248.8672" style="stroke: #000000; stroke-width: 2.0;" width="699.5" x="23" y="328.2266"/><rect fill="#FFFFFF" height="73.0703" style="stroke: none; stroke-width: 1.0;" width="699.5" x="23" y="504.0234"/><line style="stroke: #383838; stroke-width: 1.0; stroke-dasharray: 5.0,5.0;" x1="54" x2="54" y1="86.2969" y2="601.0938"/><line style="stroke: #383838; stroke-width: 1.0; stroke-dasharray: 5.0,5.0;" x1="175.5" x2="175.5" y1="86.2969" y2="601.0938"/><line style="stroke: #383838; stroke-width: 1.0; stroke-dasharray: 5.0,5.0;" x1="322.5" x2="322.5" y1="86.2969" y2="601.0938"/><line style="stroke: #383838; stroke-width: 1.0; stroke-dasharray: 5.0,5.0;" x1="468.5" x2="468.5" y1="86.2969" y2="601.0938"/><line style="stroke: #383838; stroke-width: 1.0; stroke-dasharray: 5.0,5.0;" x1="632.5" x2="632.5" y1="86.2969" y2="601.0938"/><text fill="#000000" font-family="sans-serif" font-size="14" lengthAdjust="spacingAndGlyphs" textLength="36" x="33" y="82.9951">Actor</text><ellipse cx="54" cy="13" fill="#F8F8F8" filter="url(#f1jiksnsho9ofx)" rx="8" ry="8" style="stroke: #383838; stroke-width: 2.0;"/><path d="M54,21 L54,48 M41,29 L67,29 M54,48 L41,63 M54,48 L67,63 " fill="none" filter="url(#f1jiksnsho9ofx)" style="stroke: #383838; stroke-width: 2.0;"/><text fill="#000000" font-family="sans-serif" font-size="14" lengthAdjust="spacingAndGlyphs" textLength="36" x="33" y="613.0889">Actor</text><ellipse cx="54" cy="626.3906" fill="#F8F8F8" filter="url(#f1jiksnsho9ofx)" rx="8" ry="8" style="stroke: #383838; stroke-width: 2.0;"/><path d="M54,634.3906 L54,661.3906 M41,642.3906 L67,642.3906 M54,661.3906 L41,676.3906 M54,661.3906 L67,676.3906 " fill="none" filter="url(#f1jiksnsho9ofx)" style="stroke: #383838; stroke-width: 2.0;"/><rect fill="#F8F8F8" filter="url(#f1jiksnsho9ofx)" height="30.2969" style="stroke: #383838; stroke-width: 1.5;" width="145" x="101.5" y="51"/><text fill="#000000" font-family="sans-serif" font-size="14" lengthAdjust="spacingAndGlyphs" textLength="131" x="108.5" y="70.9951">CommandManager</text><rect fill="#F8F8F8" filter="url(#f1jiksnsho9ofx)" height="30.2969" style="stroke: #383838; stroke-width: 1.5;" width="145" x="101.5" y="600.0938"/><text fill="#000000" font-family="sans-serif" font-size="14" lengthAdjust="spacingAndGlyphs" textLength="131" x="108.5" y="620.0889">CommandManager</text><rect fill="#F8F8F8" filter="url(#f1jiksnsho9ofx)" height="30.2969" style="stroke: #383838; stroke-width: 1.5;" width="120" x="260.5" y="51"/><text fill="#000000" font-family="sans-serif" font-size="14" lengthAdjust="spacingAndGlyphs" textLength="106" x="267.5" y="70.9951">:requestQueue</text><rect fill="#F8F8F8" filter="url(#f1jiksnsho9ofx)" height="30.2969" style="stroke: #383838; stroke-width: 1.5;" width="120" x="260.5" y="600.0938"/><text fill="#000000" font-family="sans-serif" font-size="14" lengthAdjust="spacingAndGlyphs" textLength="106" x="267.5" y="620.0889">:requestQueue</text><rect fill="#F8F8F8" filter="url(#f1jiksnsho9ofx)" height="30.2969" style="stroke: #383838; stroke-width: 1.5;" width="144" x="394.5" y="51"/><text fill="#000000" font-family="sans-serif" font-size="14" lengthAdjust="spacingAndGlyphs" textLength="130" x="401.5" y="70.9951">CommandRequest</text><rect fill="#F8F8F8" filter="url(#f1jiksnsho9ofx)" height="30.2969" style="stroke: #383838; stroke-width: 1.5;" width="144" x="394.5" y="600.0938"/><text fill="#000000" font-family="sans-serif" font-size="14" lengthAdjust="spacingAndGlyphs" textLength="130" x="401.5" y="620.0889">CommandRequest</text><rect fill="#F8F8F8" filter="url(#f1jiksnsho9ofx)" height="30.2969" style="stroke: #383838; stroke-width: 1.5;" width="156" x="552.5" y="51"/><text fill="#000000" font-family="sans-serif" font-size="14" lengthAdjust="spacingAndGlyphs" textLength="142" x="559.5" y="70.9951">CommandResponse</text><rect fill="#F8F8F8" filter="url(#f1jiksnsho9ofx)" height="30.2969" style="stroke: #383838; stroke-width: 1.5;" width="156" x="552.5" y="600.0938"/><text fill="#000000" font-family="sans-serif" font-size="14" lengthAdjust="spacingAndGlyphs" textLength="142" x="559.5" y="620.0889">CommandResponse</text><rect fill="#FFFFFF" filter="url(#f1jiksnsho9ofx)" height="474.6641" style="stroke: #383838; stroke-width: 1.0;" width="10" x="171" y="117.4297"/><rect fill="#FFFFFF" filter="url(#f1jiksnsho9ofx)" height="403.3984" style="stroke: #383838; stroke-width: 1.0;" width="10" x="317.5" y="188.6953"/><rect fill="#FFFFFF" filter="url(#f1jiksnsho9ofx)" height="321" style="stroke: #383838; stroke-width: 1.0;" width="10" x="463.5" y="271.0938"/><rect fill="#FFFFFF" filter="url(#f1jiksnsho9ofx)" height="29.1328" style="stroke: #383838; stroke-width: 1.0;" width="10" x="627.5" y="395.625"/><polygon fill="#383838" points="159,113.4297,169,117.4297,159,121.4297,163,117.4297" style="stroke: #383838; stroke-width: 1.0;"/><line style="stroke: #383838; stroke-width: 1.0;" x1="54" x2="165" y1="117.4297" y2="117.4297"/><text fill="#000000" font-family="sans-serif" font-size="13" lengthAdjust="spacingAndGlyphs" textLength="49" x="61" y="112.3638">request</text><line style="stroke: #383838; stroke-width: 1.0;" x1="181" x2="223" y1="146.5625" y2="146.5625"/><line style="stroke: #383838; stroke-width: 1.0;" x1="223" x2="223" y1="146.5625" y2="159.5625"/><line style="stroke: #383838; stroke-width: 1.0;" x1="182" x2="223" y1="159.5625" y2="159.5625"/><polygon fill="#383838" points="192,155.5625,182,159.5625,192,163.5625,188,159.5625" style="stroke: #383838; stroke-width: 1.0;"/><text fill="#000000" font-family="sans-serif" font-size="13" lengthAdjust="spacingAndGlyphs" textLength="120" x="188" y="141.4966">deserializeRequest</text><polygon fill="#383838" points="305.5,184.6953,315.5,188.6953,305.5,192.6953,309.5,188.6953" style="stroke: #383838; stroke-width: 1.0;"/><line style="stroke: #383838; stroke-width: 1.0;" x1="181" x2="311.5" y1="188.6953" y2="188.6953"/><text fill="#000000" font-family="sans-serif" font-size="13" lengthAdjust="spacingAndGlyphs" textLength="56" x="188" y="183.6294">enqueue</text><path d="M13,203.6953 L90,203.6953 L90,210.6953 L80,220.6953 L13,220.6953 L13,203.6953 " fill="#EEEEEE" style="stroke: #000000; stroke-width: 1.0;"/><rect fill="none" height="380.3984" style="stroke: #000000; stroke-width: 2.0;" width="719.5" x="13" y="203.6953"/><text fill="#000000" font-family="sans-serif" font-size="13" font-weight="bold" lengthAdjust="spacingAndGlyphs" textLength="32" x="28" y="216.7622">loop</text><text fill="#000000" font-family="sans-serif" font-size="11" font-weight="bold" lengthAdjust="spacingAndGlyphs" textLength="38" x="105" y="215.9058">[loop]</text><polygon fill="#383838" points="192,237.9609,182,241.9609,192,245.9609,188,241.9609" style="stroke: #383838; stroke-width: 1.0;"/><line style="stroke: #383838; stroke-width: 1.0;" x1="186" x2="316.5" y1="241.9609" y2="241.9609"/><text fill="#000000" font-family="sans-serif" font-size="13" lengthAdjust="spacingAndGlyphs" textLength="74" x="198" y="236.895">pollRequest</text><polygon fill="#383838" points="451.5,267.0938,461.5,271.0938,451.5,275.0938,455.5,271.0938" style="stroke: #383838; stroke-width: 1.0;"/><line style="stroke: #383838; stroke-width: 1.0;" x1="181" x2="457.5" y1="271.0938" y2="271.0938"/><text fill="#000000" font-family="sans-serif" font-size="13" lengthAdjust="spacingAndGlyphs" textLength="49" x="188" y="266.0278">request</text><line style="stroke: #383838; stroke-width: 1.0;" x1="473.5" x2="515.5" y1="300.2266" y2="300.2266"/><line style="stroke: #383838; stroke-width: 1.0;" x1="515.5" x2="515.5" y1="300.2266" y2="313.2266"/><line style="stroke: #383838; stroke-width: 1.0;" x1="474.5" x2="515.5" y1="313.2266" y2="313.2266"/><polygon fill="#383838" points="484.5,309.2266,474.5,313.2266,484.5,317.2266,480.5,313.2266" style="stroke: #383838; stroke-width: 1.0;"/><text fill="#000000" font-family="sans-serif" font-size="13" lengthAdjust="spacingAndGlyphs" textLength="65" x="480.5" y="295.1606">onReceive</text><path d="M23,328.2266 L87,328.2266 L87,335.2266 L77,345.2266 L23,345.2266 L23,328.2266 " fill="#EEEEEE" style="stroke: #000000; stroke-width: 1.0;"/><rect fill="none" height="248.8672" style="stroke: #000000; stroke-width: 2.0;" width="699.5" x="23" y="328.2266"/><text fill="#000000" font-family="sans-serif" font-size="13" font-weight="bold" lengthAdjust="spacingAndGlyphs" textLength="19" x="38" y="341.2935">alt</text><text fill="#000000" font-family="sans-serif" font-size="11" font-weight="bold" lengthAdjust="spacingAndGlyphs" textLength="115" x="102" y="340.437">[needs Response]</text><polygon fill="#383838" points="192,362.4922,182,366.4922,192,370.4922,188,366.4922" style="stroke: #383838; stroke-width: 1.0;"/><line style="stroke: #383838; stroke-width: 1.0;" x1="186" x2="462.5" y1="366.4922" y2="366.4922"/><text fill="#000000" font-family="sans-serif" font-size="13" lengthAdjust="spacingAndGlyphs" textLength="69" x="198" y="361.4263">return true</text><polygon fill="#383838" points="615.5,391.625,625.5,395.625,615.5,399.625,619.5,395.625" style="stroke: #383838; stroke-width: 1.0;"/><line style="stroke: #383838; stroke-width: 1.0;" x1="181" x2="621.5" y1="395.625" y2="395.625"/><text fill="#000000" font-family="sans-serif" font-size="13" lengthAdjust="spacingAndGlyphs" textLength="83" x="188" y="390.5591">getResponse</text><polygon fill="#383838" points="192,420.7578,182,424.7578,192,428.7578,188,424.7578" style="stroke: #383838; stroke-width: 1.0;"/><line style="stroke: #383838; stroke-width: 1.0;" x1="186" x2="631.5" y1="424.7578" y2="424.7578"/><text fill="#000000" font-family="sans-serif" font-size="13" lengthAdjust="spacingAndGlyphs" textLength="62" x="198" y="419.6919">sendData</text><line style="stroke: #383838; stroke-width: 1.0;" x1="181" x2="223" y1="453.8906" y2="453.8906"/><line style="stroke: #383838; stroke-width: 1.0;" x1="223" x2="223" y1="453.8906" y2="466.8906"/><line style="stroke: #383838; stroke-width: 1.0;" x1="182" x2="223" y1="466.8906" y2="466.8906"/><polygon fill="#383838" points="192,462.8906,182,466.8906,192,470.8906,188,466.8906" style="stroke: #383838; stroke-width: 1.0;"/><text fill="#000000" font-family="sans-serif" font-size="13" lengthAdjust="spacingAndGlyphs" textLength="104" x="188" y="448.8247">serializeRequest</text><polygon fill="#383838" points="65,492.0234,55,496.0234,65,500.0234,61,496.0234" style="stroke: #383838; stroke-width: 1.0;"/><line style="stroke: #383838; stroke-width: 1.0;" x1="59" x2="170" y1="496.0234" y2="496.0234"/><text fill="#000000" font-family="sans-serif" font-size="13" lengthAdjust="spacingAndGlyphs" textLength="93" x="71" y="490.9575">sendResponse</text><line style="stroke: #000000; stroke-width: 1.0; stroke-dasharray: 2.0,2.0;" x1="23" x2="722.5" y1="505.0234" y2="505.0234"/><text fill="#000000" font-family="sans-serif" font-size="11" font-weight="bold" lengthAdjust="spacingAndGlyphs" textLength="141" x="28" y="515.2339">[no response needed]</text><polygon fill="#383838" points="192,535.9609,182,539.9609,192,543.9609,188,539.9609" style="stroke: #383838; stroke-width: 1.0;"/><line style="stroke: #383838; stroke-width: 1.0;" x1="186" x2="462.5" y1="539.9609" y2="539.9609"/><text fill="#000000" font-family="sans-serif" font-size="13" lengthAdjust="spacingAndGlyphs" textLength="67" x="198" y="534.895">return Null</text><polygon fill="#383838" points="65,565.0938,55,569.0938,65,573.0938,61,569.0938" style="stroke: #383838; stroke-width: 1.0;"/><line style="stroke: #383838; stroke-width: 1.0;" x1="59" x2="170" y1="569.0938" y2="569.0938"/><text fill="#000000" font-family="sans-serif" font-size="13" lengthAdjust="spacingAndGlyphs" textLength="69" x="71" y="564.0278">return true</text><!--MD5=[e6a2eca82cf8442cf055c495fdc6eb3a]
@startuml

skinparam linetype ortho
skinparam Monochrome true
skinparam classAttributeIconSize 0


Actor Actor

Actor -> CommandManager: request
activate CommandManager

CommandManager->CommandManager: deserializeRequest

CommandManager->":requestQueue": enqueue
activate ":requestQueue"

loop loop
":requestQueue"->CommandManager: pollRequest
CommandManager->CommandRequest: request
activate CommandRequest

CommandRequest->CommandRequest: onReceive

alt needs Response
    CommandRequest->CommandManager: return true
    CommandManager->CommandResponse: getResponse
    activate CommandResponse
    CommandResponse->CommandManager: sendData  
    deactivate CommandResponse
    CommandManager->CommandManager: serializeRequest
    CommandManager->Actor: sendResponse



    else no response needed
        CommandRequest->CommandManager: return Null
        CommandManager->Actor: return true

end

end


@enduml

PlantUML version 1.2020.02(Sun Mar 01 10:22:07 GMT 2020)
(GPL source distribution)
Java Runtime: OpenJDK Runtime Environment
JVM: OpenJDK 64-Bit Server VM
Java Version: 11.0.9+11-Ubuntu-0ubuntu1
Operating System: Linux
Default Encoding: ANSI_X3.4-1968
Language: en
Country: US
--></g></svg>