<?xml version="1.0" encoding="UTF-8" standalone="no"?><svg xmlns="http://www.w3.org/2000/svg" xmlns:xlink="http://www.w3.org/1999/xlink" contentScriptType="application/ecmascript" contentStyleType="text/css" height="347px" preserveAspectRatio="none" style="width:418px;height:347px;" version="1.1" viewBox="0 0 418 347" width="418px" zoomAndPan="magnify"><defs><filter height="300%" id="f1l1sd7j3ogfym" width="300%" x="-1" y="-1"><feGaussianBlur result="blurOut" stdDeviation="2.0"/><feColorMatrix in="blurOut" result="blurOut2" type="matrix" values="0 0 0 0 0 0 0 0 0 0 0 0 0 0 0 0 0 0 .4 0"/><feOffset dx="4.0" dy="4.0" in="blurOut2" result="blurOut3"/><feBlend in="SourceGraphic" in2="blurOut3" mode="normal"/></filter></defs><g><text fill="#000000" font-family="sans-serif" font-size="18" lengthAdjust="spacingAndGlyphs" textLength="394" x="12" y="26.708">Communication Manager Sequence Diagram</text><rect fill="#FFFFFF" filter="url(#f1l1sd7j3ogfym)" height="89.3984" style="stroke: #383838; stroke-width: 1.0;" width="10" x="229.5" y="152.3828"/><rect fill="#FFFFFF" filter="url(#f1l1sd7j3ogfym)" height="17.1328" style="stroke: #000000; stroke-width: 2.0;" width="135" x="121.5" y="167.3828"/><line style="stroke: #383838; stroke-width: 1.0; stroke-dasharray: 5.0,5.0;" x1="131.5" x2="131.5" y1="121.25" y2="259.7813"/><line style="stroke: #383838; stroke-width: 1.0; stroke-dasharray: 5.0,5.0;" x1="234.5" x2="234.5" y1="121.25" y2="259.7813"/><text fill="#000000" font-family="sans-serif" font-size="14" lengthAdjust="spacingAndGlyphs" textLength="35" x="111.5" y="117.9482">actor</text><ellipse cx="132" cy="47.9531" fill="#F8F8F8" filter="url(#f1l1sd7j3ogfym)" rx="8" ry="8" style="stroke: #383838; stroke-width: 2.0;"/><path d="M132,55.9531 L132,82.9531 M119,63.9531 L145,63.9531 M132,82.9531 L119,97.9531 M132,82.9531 L145,97.9531 " fill="none" filter="url(#f1l1sd7j3ogfym)" style="stroke: #383838; stroke-width: 2.0;"/><text fill="#000000" font-family="sans-serif" font-size="14" lengthAdjust="spacingAndGlyphs" textLength="35" x="111.5" y="271.7764">actor</text><ellipse cx="132" cy="285.0781" fill="#F8F8F8" filter="url(#f1l1sd7j3ogfym)" rx="8" ry="8" style="stroke: #383838; stroke-width: 2.0;"/><path d="M132,293.0781 L132,320.0781 M119,301.0781 L145,301.0781 M132,320.0781 L119,335.0781 M132,320.0781 L145,335.0781 " fill="none" filter="url(#f1l1sd7j3ogfym)" style="stroke: #383838; stroke-width: 2.0;"/><rect fill="#F8F8F8" filter="url(#f1l1sd7j3ogfym)" height="30.2969" style="stroke: #383838; stroke-width: 1.5;" width="140" x="162.5" y="85.9531"/><text fill="#000000" font-family="sans-serif" font-size="14" lengthAdjust="spacingAndGlyphs" textLength="126" x="169.5" y="105.9482">CommmsManager</text><rect fill="#F8F8F8" filter="url(#f1l1sd7j3ogfym)" height="30.2969" style="stroke: #383838; stroke-width: 1.5;" width="140" x="162.5" y="258.7813"/><text fill="#000000" font-family="sans-serif" font-size="14" lengthAdjust="spacingAndGlyphs" textLength="126" x="169.5" y="278.7764">CommmsManager</text><rect fill="#FFFFFF" filter="url(#f1l1sd7j3ogfym)" height="89.3984" style="stroke: #383838; stroke-width: 1.0;" width="10" x="229.5" y="152.3828"/><polygon fill="#383838" points="217.5,148.3828,227.5,152.3828,217.5,156.3828,221.5,152.3828" style="stroke: #383838; stroke-width: 1.0;"/><line style="stroke: #383838; stroke-width: 1.0;" x1="132" x2="223.5" y1="152.3828" y2="152.3828"/><text fill="#000000" font-family="sans-serif" font-size="13" lengthAdjust="spacingAndGlyphs" textLength="72" x="139" y="147.3169">startServer</text><path d="M121.5,167.3828 L198.5,167.3828 L198.5,174.3828 L188.5,184.3828 L121.5,184.3828 L121.5,167.3828 " fill="#EEEEEE" style="stroke: #000000; stroke-width: 1.0;"/><rect fill="none" height="17.1328" style="stroke: #000000; stroke-width: 2.0;" width="135" x="121.5" y="167.3828"/><text fill="#000000" font-family="sans-serif" font-size="13" font-weight="bold" lengthAdjust="spacingAndGlyphs" textLength="32" x="136.5" y="180.4497">loop</text><text fill="#000000" font-family="sans-serif" font-size="11" font-weight="bold" lengthAdjust="spacingAndGlyphs" textLength="38" x="213.5" y="179.5933">[loop]</text><polygon fill="#383838" points="217.5,208.6484,227.5,212.6484,217.5,216.6484,221.5,212.6484" style="stroke: #383838; stroke-width: 1.0;"/><line style="stroke: #383838; stroke-width: 1.0;" x1="132" x2="223.5" y1="212.6484" y2="212.6484"/><text fill="#000000" font-family="sans-serif" font-size="13" lengthAdjust="spacingAndGlyphs" textLength="71" x="139" y="207.5825">endService</text><polygon fill="#383838" points="143,237.7813,133,241.7813,143,245.7813,139,241.7813" style="stroke: #383838; stroke-width: 1.0;"/><line style="stroke: #383838; stroke-width: 1.0;" x1="137" x2="233.5" y1="241.7813" y2="241.7813"/><text fill="#000000" font-family="sans-serif" font-size="13" lengthAdjust="spacingAndGlyphs" textLength="70" x="149" y="236.7153">stopServer</text><!--MD5=[784a4eb7fbabdb3daf564c1807b6b07b]
@startuml

skinparam linetype ortho
skinparam Monochrome true
skinparam classAttributeIconSize 0

title Communication Manager Sequence Diagram
actor actor


actor-> CommmsManager: startServer
activate CommmsManager
loop loop
end

actor-> CommmsManager: endService

CommmsManager->actor: stopServer
deactivate CommmsManager

@enduml

PlantUML version 1.2020.02(Sun Mar 01 10:22:07 GMT 2020)
(GPL source distribution)
Java Runtime: OpenJDK Runtime Environment
JVM: OpenJDK 64-Bit Server VM
Java Version: 11.0.9+11-Ubuntu-0ubuntu1
Operating System: Linux
Default Encoding: ANSI_X3.4-1968
Language: en
Country: US
--></g></svg>