<?xml version="1.0" encoding="UTF-8" standalone="no"?><svg xmlns="http://www.w3.org/2000/svg" xmlns:xlink="http://www.w3.org/1999/xlink" contentScriptType="application/ecmascript" contentStyleType="text/css" height="310px" preserveAspectRatio="none" style="width:287px;height:310px;" version="1.1" viewBox="0 0 287 310" width="287px" zoomAndPan="magnify"><defs><filter height="300%" id="f12oj4ot2qj1g7" width="300%" x="-1" y="-1"><feGaussianBlur result="blurOut" stdDeviation="2.0"/><feColorMatrix in="blurOut" result="blurOut2" type="matrix" values="0 0 0 0 0 0 0 0 0 0 0 0 0 0 0 0 0 0 .4 0"/><feOffset dx="4.0" dy="4.0" in="blurOut2" result="blurOut3"/><feBlend in="SourceGraphic" in2="blurOut3" mode="normal"/></filter></defs><g><rect fill="#FFFFFF" filter="url(#f12oj4ot2qj1g7)" height="87.3984" style="stroke: #A80036; stroke-width: 1.0;" width="10" x="203" y="117.4297"/><line style="stroke: #A80036; stroke-width: 1.0; stroke-dasharray: 5.0,5.0;" x1="29" x2="29" y1="86.2969" y2="222.8281"/><line style="stroke: #A80036; stroke-width: 1.0; stroke-dasharray: 5.0,5.0;" x1="93" x2="93" y1="86.2969" y2="222.8281"/><line style="stroke: #A80036; stroke-width: 1.0; stroke-dasharray: 5.0,5.0;" x1="208" x2="208" y1="86.2969" y2="222.8281"/><text fill="#000000" font-family="sans-serif" font-size="14" lengthAdjust="spacingAndGlyphs" textLength="36" x="8" y="82.9951">Actor</text><ellipse cx="29" cy="13" fill="#FEFECE" filter="url(#f12oj4ot2qj1g7)" rx="8" ry="8" style="stroke: #A80036; stroke-width: 2.0;"/><path d="M29,21 L29,48 M16,29 L42,29 M29,48 L16,63 M29,48 L42,63 " fill="none" filter="url(#f12oj4ot2qj1g7)" style="stroke: #A80036; stroke-width: 2.0;"/><text fill="#000000" font-family="sans-serif" font-size="14" lengthAdjust="spacingAndGlyphs" textLength="36" x="8" y="234.8232">Actor</text><ellipse cx="29" cy="248.125" fill="#FEFECE" filter="url(#f12oj4ot2qj1g7)" rx="8" ry="8" style="stroke: #A80036; stroke-width: 2.0;"/><path d="M29,256.125 L29,283.125 M16,264.125 L42,264.125 M29,283.125 L16,298.125 M29,283.125 L42,298.125 " fill="none" filter="url(#f12oj4ot2qj1g7)" style="stroke: #A80036; stroke-width: 2.0;"/><text fill="#000000" font-family="sans-serif" font-size="14" lengthAdjust="spacingAndGlyphs" textLength="60" x="60" y="82.9951">Manager</text><ellipse cx="93" cy="13" fill="#FEFECE" filter="url(#f12oj4ot2qj1g7)" rx="8" ry="8" style="stroke: #A80036; stroke-width: 2.0;"/><path d="M93,21 L93,48 M80,29 L106,29 M93,48 L80,63 M93,48 L106,63 " fill="none" filter="url(#f12oj4ot2qj1g7)" style="stroke: #A80036; stroke-width: 2.0;"/><text fill="#000000" font-family="sans-serif" font-size="14" lengthAdjust="spacingAndGlyphs" textLength="60" x="60" y="234.8232">Manager</text><ellipse cx="93" cy="248.125" fill="#FEFECE" filter="url(#f12oj4ot2qj1g7)" rx="8" ry="8" style="stroke: #A80036; stroke-width: 2.0;"/><path d="M93,256.125 L93,283.125 M80,264.125 L106,264.125 M93,283.125 L80,298.125 M93,283.125 L106,298.125 " fill="none" filter="url(#f12oj4ot2qj1g7)" style="stroke: #A80036; stroke-width: 2.0;"/><rect fill="#FEFECE" filter="url(#f12oj4ot2qj1g7)" height="30.2969" style="stroke: #A80036; stroke-width: 1.5;" width="140" x="136" y="51"/><text fill="#000000" font-family="sans-serif" font-size="14" lengthAdjust="spacingAndGlyphs" textLength="126" x="143" y="70.9951">DatabaseManager</text><rect fill="#FEFECE" filter="url(#f12oj4ot2qj1g7)" height="30.2969" style="stroke: #A80036; stroke-width: 1.5;" width="140" x="136" y="221.8281"/><text fill="#000000" font-family="sans-serif" font-size="14" lengthAdjust="spacingAndGlyphs" textLength="126" x="143" y="241.8232">DatabaseManager</text><rect fill="#FFFFFF" filter="url(#f12oj4ot2qj1g7)" height="87.3984" style="stroke: #A80036; stroke-width: 1.0;" width="10" x="203" y="117.4297"/><polygon fill="#A80036" points="191,113.4297,201,117.4297,191,121.4297,195,117.4297" style="stroke: #A80036; stroke-width: 1.0;"/><line style="stroke: #A80036; stroke-width: 1.0;" x1="29" x2="197" y1="117.4297" y2="117.4297"/><text fill="#000000" font-family="sans-serif" font-size="13" lengthAdjust="spacingAndGlyphs" textLength="81" x="36" y="112.3638">initDatabase</text><polygon fill="#A80036" points="191,142.5625,201,146.5625,191,150.5625,195,146.5625" style="stroke: #A80036; stroke-width: 1.0;"/><line style="stroke: #A80036; stroke-width: 1.0;" x1="93" x2="197" y1="146.5625" y2="146.5625"/><text fill="#000000" font-family="sans-serif" font-size="13" lengthAdjust="spacingAndGlyphs" textLength="36" x="100" y="141.4966">query</text><polygon fill="#A80036" points="191,171.6953,201,175.6953,191,179.6953,195,175.6953" style="stroke: #A80036; stroke-width: 1.0;"/><line style="stroke: #A80036; stroke-width: 1.0;" x1="93" x2="197" y1="175.6953" y2="175.6953"/><text fill="#000000" font-family="sans-serif" font-size="13" lengthAdjust="spacingAndGlyphs" textLength="45" x="100" y="170.6294">update</text><polygon fill="#A80036" points="196,200.8281,206,204.8281,196,208.8281,200,204.8281" style="stroke: #A80036; stroke-width: 1.0;"/><line style="stroke: #A80036; stroke-width: 1.0;" x1="29" x2="202" y1="204.8281" y2="204.8281"/><text fill="#000000" font-family="sans-serif" font-size="13" lengthAdjust="spacingAndGlyphs" textLength="95" x="36" y="199.7622">closeDatabase</text><!--MD5=[eeb53c69c8cbc5baeafb01eae686764a]
@startuml

actor Actor as Actor
actor Manager as Manager

Actor -> DatabaseManager: initDatabase
activate DatabaseManager

DatabaseManager <- Manager: query

DatabaseManager <- Manager: update

Actor -> DatabaseManager: closeDatabase
deactivate DatabaseManager
@enduml

PlantUML version 1.2020.02(Sun Mar 01 10:22:07 GMT 2020)
(GPL source distribution)
Java Runtime: OpenJDK Runtime Environment
JVM: OpenJDK 64-Bit Server VM
Java Version: 11.0.9+11-Ubuntu-0ubuntu1
Operating System: Linux
Default Encoding: ANSI_X3.4-1968
Language: en
Country: US
--></g></svg>