<?xml version="1.0" encoding="UTF-8" standalone="no"?><svg xmlns="http://www.w3.org/2000/svg" xmlns:xlink="http://www.w3.org/1999/xlink" contentScriptType="application/ecmascript" contentStyleType="text/css" height="310px" preserveAspectRatio="none" style="width:301px;height:310px;" version="1.1" viewBox="0 0 301 310" width="301px" zoomAndPan="magnify"><defs><filter height="300%" id="f1865hm69zbnc9" width="300%" x="-1" y="-1"><feGaussianBlur result="blurOut" stdDeviation="2.0"/><feColorMatrix in="blurOut" result="blurOut2" type="matrix" values="0 0 0 0 0 0 0 0 0 0 0 0 0 0 0 0 0 0 .4 0"/><feOffset dx="4.0" dy="4.0" in="blurOut2" result="blurOut3"/><feBlend in="SourceGraphic" in2="blurOut3" mode="normal"/></filter></defs><g><rect fill="#FFFFFF" filter="url(#f1865hm69zbnc9)" height="87.3984" style="stroke: #383838; stroke-width: 1.0;" width="10" x="217" y="117.4297"/><line style="stroke: #383838; stroke-width: 1.0; stroke-dasharray: 5.0,5.0;" x1="36" x2="36" y1="86.2969" y2="222.8281"/><line style="stroke: #383838; stroke-width: 1.0; stroke-dasharray: 5.0,5.0;" x1="107" x2="107" y1="86.2969" y2="222.8281"/><line style="stroke: #383838; stroke-width: 1.0; stroke-dasharray: 5.0,5.0;" x1="222" x2="222" y1="86.2969" y2="222.8281"/><text fill="#000000" font-family="sans-serif" font-size="14" lengthAdjust="spacingAndGlyphs" textLength="50" x="8" y="82.9951">Factory</text><ellipse cx="36" cy="13" fill="#F8F8F8" filter="url(#f1865hm69zbnc9)" rx="8" ry="8" style="stroke: #383838; stroke-width: 2.0;"/><path d="M36,21 L36,48 M23,29 L49,29 M36,48 L23,63 M36,48 L49,63 " fill="none" filter="url(#f1865hm69zbnc9)" style="stroke: #383838; stroke-width: 2.0;"/><text fill="#000000" font-family="sans-serif" font-size="14" lengthAdjust="spacingAndGlyphs" textLength="50" x="8" y="234.8232">Factory</text><ellipse cx="36" cy="248.125" fill="#F8F8F8" filter="url(#f1865hm69zbnc9)" rx="8" ry="8" style="stroke: #383838; stroke-width: 2.0;"/><path d="M36,256.125 L36,283.125 M23,264.125 L49,264.125 M36,283.125 L23,298.125 M36,283.125 L49,298.125 " fill="none" filter="url(#f1865hm69zbnc9)" style="stroke: #383838; stroke-width: 2.0;"/><text fill="#000000" font-family="sans-serif" font-size="14" lengthAdjust="spacingAndGlyphs" textLength="60" x="74" y="82.9951">Manager</text><ellipse cx="107" cy="13" fill="#F8F8F8" filter="url(#f1865hm69zbnc9)" rx="8" ry="8" style="stroke: #383838; stroke-width: 2.0;"/><path d="M107,21 L107,48 M94,29 L120,29 M107,48 L94,63 M107,48 L120,63 " fill="none" filter="url(#f1865hm69zbnc9)" style="stroke: #383838; stroke-width: 2.0;"/><text fill="#000000" font-family="sans-serif" font-size="14" lengthAdjust="spacingAndGlyphs" textLength="60" x="74" y="234.8232">Manager</text><ellipse cx="107" cy="248.125" fill="#F8F8F8" filter="url(#f1865hm69zbnc9)" rx="8" ry="8" style="stroke: #383838; stroke-width: 2.0;"/><path d="M107,256.125 L107,283.125 M94,264.125 L120,264.125 M107,283.125 L94,298.125 M107,283.125 L120,298.125 " fill="none" filter="url(#f1865hm69zbnc9)" style="stroke: #383838; stroke-width: 2.0;"/><rect fill="#F8F8F8" filter="url(#f1865hm69zbnc9)" height="30.2969" style="stroke: #383838; stroke-width: 1.5;" width="140" x="150" y="51"/><text fill="#000000" font-family="sans-serif" font-size="14" lengthAdjust="spacingAndGlyphs" textLength="126" x="157" y="70.9951">DatabaseManager</text><rect fill="#F8F8F8" filter="url(#f1865hm69zbnc9)" height="30.2969" style="stroke: #383838; stroke-width: 1.5;" width="140" x="150" y="221.8281"/><text fill="#000000" font-family="sans-serif" font-size="14" lengthAdjust="spacingAndGlyphs" textLength="126" x="157" y="241.8232">DatabaseManager</text><rect fill="#FFFFFF" filter="url(#f1865hm69zbnc9)" height="87.3984" style="stroke: #383838; stroke-width: 1.0;" width="10" x="217" y="117.4297"/><polygon fill="#383838" points="205,113.4297,215,117.4297,205,121.4297,209,117.4297" style="stroke: #383838; stroke-width: 1.0;"/><line style="stroke: #383838; stroke-width: 1.0;" x1="36" x2="211" y1="117.4297" y2="117.4297"/><text fill="#000000" font-family="sans-serif" font-size="13" lengthAdjust="spacingAndGlyphs" textLength="81" x="43" y="112.3638">initDatabase</text><polygon fill="#383838" points="205,142.5625,215,146.5625,205,150.5625,209,146.5625" style="stroke: #383838; stroke-width: 1.0;"/><line style="stroke: #383838; stroke-width: 1.0;" x1="107" x2="211" y1="146.5625" y2="146.5625"/><text fill="#000000" font-family="sans-serif" font-size="13" lengthAdjust="spacingAndGlyphs" textLength="36" x="114" y="141.4966">query</text><polygon fill="#383838" points="205,171.6953,215,175.6953,205,179.6953,209,175.6953" style="stroke: #383838; stroke-width: 1.0;"/><line style="stroke: #383838; stroke-width: 1.0;" x1="107" x2="211" y1="175.6953" y2="175.6953"/><text fill="#000000" font-family="sans-serif" font-size="13" lengthAdjust="spacingAndGlyphs" textLength="45" x="114" y="170.6294">update</text><polygon fill="#383838" points="210,200.8281,220,204.8281,210,208.8281,214,204.8281" style="stroke: #383838; stroke-width: 1.0;"/><line style="stroke: #383838; stroke-width: 1.0;" x1="36" x2="216" y1="204.8281" y2="204.8281"/><text fill="#000000" font-family="sans-serif" font-size="13" lengthAdjust="spacingAndGlyphs" textLength="95" x="43" y="199.7622">closeDatabase</text><!--MD5=[9daf27592eb59c55ef23c59b496e8398]
@startuml
skinparam linetype ortho
skinparam Monochrome true
skinparam classAttributeIconSize 0

actor Factory as Factory
actor Manager as Manager

Factory -> DatabaseManager: initDatabase
activate DatabaseManager

DatabaseManager <- Manager: query

DatabaseManager <- Manager: update

Factory -> DatabaseManager: closeDatabase
deactivate DatabaseManager
@enduml

PlantUML version 1.2020.02(Sun Mar 01 10:22:07 GMT 2020)
(GPL source distribution)
Java Runtime: OpenJDK Runtime Environment
JVM: OpenJDK 64-Bit Server VM
Java Version: 11.0.9+11-Ubuntu-0ubuntu1
Operating System: Linux
Default Encoding: ANSI_X3.4-1968
Language: en
Country: US
--></g></svg>