<?xml version="1.0" encoding="UTF-8" standalone="no"?><svg xmlns="http://www.w3.org/2000/svg" xmlns:xlink="http://www.w3.org/1999/xlink" contentScriptType="application/ecmascript" contentStyleType="text/css" height="669px" preserveAspectRatio="none" style="width:467px;height:669px;" version="1.1" viewBox="0 0 467 669" width="467px" zoomAndPan="magnify"><defs><filter height="300%" id="f126grgqnaromp" width="300%" x="-1" y="-1"><feGaussianBlur result="blurOut" stdDeviation="2.0"/><feColorMatrix in="blurOut" result="blurOut2" type="matrix" values="0 0 0 0 0 0 0 0 0 0 0 0 0 0 0 0 0 0 .4 0"/><feOffset dx="4.0" dy="4.0" in="blurOut2" result="blurOut3"/><feBlend in="SourceGraphic" in2="blurOut3" mode="normal"/></filter></defs><g><rect fill="#FFFFFF" filter="url(#f126grgqnaromp)" height="239.0625" style="stroke: #A80036; stroke-width: 1.0;" width="10" x="172" y="146.5625"/><rect fill="#FFFFFF" filter="url(#f126grgqnaromp)" height="149.6641" style="stroke: #A80036; stroke-width: 1.0;" width="10" x="172" y="414.7578"/><rect fill="#FFFFFF" filter="url(#f126grgqnaromp)" height="195.9297" style="stroke: #000000; stroke-width: 2.0;" width="372.5" x="83.5" y="161.5625"/><rect fill="#FFFFFF" filter="url(#f126grgqnaromp)" height="135.6641" style="stroke: #000000; stroke-width: 2.0;" width="352.5" x="93.5" y="214.8281"/><rect fill="#FFFFFF" filter="url(#f126grgqnaromp)" height="75.3984" style="stroke: #000000; stroke-width: 2.0;" width="332.5" x="103.5" y="268.0938"/><rect fill="#FFFFFF" filter="url(#f126grgqnaromp)" height="106.5313" style="stroke: #000000; stroke-width: 2.0;" width="251.5" x="93.5" y="429.7578"/><rect fill="#FFFFFF" filter="url(#f126grgqnaromp)" height="46.2656" style="stroke: #000000; stroke-width: 2.0;" width="231.5" x="103.5" y="483.0234"/><line style="stroke: #A80036; stroke-width: 1.0; stroke-dasharray: 5.0,5.0;" x1="29" x2="29" y1="86.2969" y2="582.4219"/><line style="stroke: #A80036; stroke-width: 1.0; stroke-dasharray: 5.0,5.0;" x1="176.5" x2="176.5" y1="86.2969" y2="582.4219"/><line style="stroke: #A80036; stroke-width: 1.0; stroke-dasharray: 5.0,5.0;" x1="289" x2="289" y1="86.2969" y2="582.4219"/><line style="stroke: #A80036; stroke-width: 1.0; stroke-dasharray: 5.0,5.0;" x1="382" x2="382" y1="86.2969" y2="582.4219"/><text fill="#000000" font-family="sans-serif" font-size="14" lengthAdjust="spacingAndGlyphs" textLength="36" x="8" y="82.9951">Actor</text><ellipse cx="29" cy="13" fill="#FEFECE" filter="url(#f126grgqnaromp)" rx="8" ry="8" style="stroke: #A80036; stroke-width: 2.0;"/><path d="M29,21 L29,48 M16,29 L42,29 M29,48 L16,63 M29,48 L42,63 " fill="none" filter="url(#f126grgqnaromp)" style="stroke: #A80036; stroke-width: 2.0;"/><text fill="#000000" font-family="sans-serif" font-size="14" lengthAdjust="spacingAndGlyphs" textLength="36" x="8" y="594.417">Actor</text><ellipse cx="29" cy="607.7188" fill="#FEFECE" filter="url(#f126grgqnaromp)" rx="8" ry="8" style="stroke: #A80036; stroke-width: 2.0;"/><path d="M29,615.7188 L29,642.7188 M16,623.7188 L42,623.7188 M29,642.7188 L16,657.7188 M29,642.7188 L42,657.7188 " fill="none" filter="url(#f126grgqnaromp)" style="stroke: #A80036; stroke-width: 2.0;"/><rect fill="#FEFECE" filter="url(#f126grgqnaromp)" height="30.2969" style="stroke: #A80036; stroke-width: 1.5;" width="123" x="113.5" y="51"/><text fill="#000000" font-family="sans-serif" font-size="14" lengthAdjust="spacingAndGlyphs" textLength="109" x="120.5" y="70.9951">RegionManager</text><rect fill="#FEFECE" filter="url(#f126grgqnaromp)" height="30.2969" style="stroke: #A80036; stroke-width: 1.5;" width="123" x="113.5" y="581.4219"/><text fill="#000000" font-family="sans-serif" font-size="14" lengthAdjust="spacingAndGlyphs" textLength="109" x="120.5" y="601.417">RegionManager</text><rect fill="#FEFECE" filter="url(#f126grgqnaromp)" height="30.2969" style="stroke: #A80036; stroke-width: 1.5;" width="68" x="253" y="51"/><text fill="#000000" font-family="sans-serif" font-size="14" lengthAdjust="spacingAndGlyphs" textLength="54" x="260" y="70.9951">:Region</text><rect fill="#FEFECE" filter="url(#f126grgqnaromp)" height="30.2969" style="stroke: #A80036; stroke-width: 1.5;" width="68" x="253" y="581.4219"/><text fill="#000000" font-family="sans-serif" font-size="14" lengthAdjust="spacingAndGlyphs" textLength="54" x="260" y="601.417">:Region</text><rect fill="#FEFECE" filter="url(#f126grgqnaromp)" height="30.2969" style="stroke: #A80036; stroke-width: 1.5;" width="84" x="338" y="51"/><text fill="#000000" font-family="sans-serif" font-size="14" lengthAdjust="spacingAndGlyphs" textLength="70" x="345" y="70.9951">:Conveyor</text><rect fill="#FEFECE" filter="url(#f126grgqnaromp)" height="30.2969" style="stroke: #A80036; stroke-width: 1.5;" width="84" x="338" y="581.4219"/><text fill="#000000" font-family="sans-serif" font-size="14" lengthAdjust="spacingAndGlyphs" textLength="70" x="345" y="601.417">:Conveyor</text><rect fill="#FFFFFF" filter="url(#f126grgqnaromp)" height="239.0625" style="stroke: #A80036; stroke-width: 1.0;" width="10" x="172" y="146.5625"/><rect fill="#FFFFFF" filter="url(#f126grgqnaromp)" height="149.6641" style="stroke: #A80036; stroke-width: 1.0;" width="10" x="172" y="414.7578"/><polygon fill="#A80036" points="165,113.4297,175,117.4297,165,121.4297,169,117.4297" style="stroke: #A80036; stroke-width: 1.0;"/><line style="stroke: #A80036; stroke-width: 1.0;" x1="29" x2="171" y1="117.4297" y2="117.4297"/><text fill="#000000" font-family="sans-serif" font-size="13" lengthAdjust="spacingAndGlyphs" textLength="71" x="36" y="112.3638">getRegions</text><polygon fill="#A80036" points="160,142.5625,170,146.5625,160,150.5625,164,146.5625" style="stroke: #A80036; stroke-width: 1.0;"/><line style="stroke: #A80036; stroke-width: 1.0;" x1="29" x2="166" y1="146.5625" y2="146.5625"/><text fill="#000000" font-family="sans-serif" font-size="13" lengthAdjust="spacingAndGlyphs" textLength="90" x="36" y="141.4966">getPartRegion</text><path d="M83.5,161.5625 L160.5,161.5625 L160.5,168.5625 L150.5,178.5625 L83.5,178.5625 L83.5,161.5625 " fill="#EEEEEE" style="stroke: #000000; stroke-width: 1.0;"/><rect fill="none" height="195.9297" style="stroke: #000000; stroke-width: 2.0;" width="372.5" x="83.5" y="161.5625"/><text fill="#000000" font-family="sans-serif" font-size="13" font-weight="bold" lengthAdjust="spacingAndGlyphs" textLength="32" x="98.5" y="174.6294">loop</text><text fill="#000000" font-family="sans-serif" font-size="11" font-weight="bold" lengthAdjust="spacingAndGlyphs" textLength="78" x="175.5" y="173.7729">[all regions]</text><polygon fill="#A80036" points="277,195.8281,287,199.8281,277,203.8281,281,199.8281" style="stroke: #A80036; stroke-width: 1.0;"/><line style="stroke: #A80036; stroke-width: 1.0;" x1="182" x2="283" y1="199.8281" y2="199.8281"/><text fill="#000000" font-family="sans-serif" font-size="13" lengthAdjust="spacingAndGlyphs" textLength="49" x="189" y="194.7622">hasPart</text><path d="M93.5,214.8281 L170.5,214.8281 L170.5,221.8281 L160.5,231.8281 L93.5,231.8281 L93.5,214.8281 " fill="#EEEEEE" style="stroke: #000000; stroke-width: 1.0;"/><rect fill="none" height="135.6641" style="stroke: #000000; stroke-width: 2.0;" width="352.5" x="93.5" y="214.8281"/><text fill="#000000" font-family="sans-serif" font-size="13" font-weight="bold" lengthAdjust="spacingAndGlyphs" textLength="32" x="108.5" y="227.895">loop</text><text fill="#000000" font-family="sans-serif" font-size="11" font-weight="bold" lengthAdjust="spacingAndGlyphs" textLength="140" x="185.5" y="227.0386">[all region conveyors]</text><polygon fill="#A80036" points="370,249.0938,380,253.0938,370,257.0938,374,253.0938" style="stroke: #A80036; stroke-width: 1.0;"/><line style="stroke: #A80036; stroke-width: 1.0;" x1="289" x2="376" y1="253.0938" y2="253.0938"/><text fill="#000000" font-family="sans-serif" font-size="13" lengthAdjust="spacingAndGlyphs" textLength="49" x="296" y="248.0278">hasPart</text><path d="M103.5,268.0938 L167.5,268.0938 L167.5,275.0938 L157.5,285.0938 L103.5,285.0938 L103.5,268.0938 " fill="#EEEEEE" style="stroke: #000000; stroke-width: 1.0;"/><rect fill="none" height="75.3984" style="stroke: #000000; stroke-width: 2.0;" width="332.5" x="103.5" y="268.0938"/><text fill="#000000" font-family="sans-serif" font-size="13" font-weight="bold" lengthAdjust="spacingAndGlyphs" textLength="19" x="118.5" y="281.1606">alt</text><text fill="#000000" font-family="sans-serif" font-size="11" font-weight="bold" lengthAdjust="spacingAndGlyphs" textLength="36" x="182.5" y="280.3042">[true]</text><polygon fill="#A80036" points="300,302.3594,290,306.3594,300,310.3594,296,306.3594" style="stroke: #A80036; stroke-width: 1.0;"/><line style="stroke: #A80036; stroke-width: 1.0;" x1="294" x2="381" y1="306.3594" y2="306.3594"/><text fill="#000000" font-family="sans-serif" font-size="13" lengthAdjust="spacingAndGlyphs" textLength="69" x="306" y="301.2935">return true</text><polygon fill="#A80036" points="193,331.4922,183,335.4922,193,339.4922,189,335.4922" style="stroke: #A80036; stroke-width: 1.0;"/><line style="stroke: #A80036; stroke-width: 1.0;" x1="187" x2="288" y1="335.4922" y2="335.4922"/><text fill="#000000" font-family="sans-serif" font-size="13" lengthAdjust="spacingAndGlyphs" textLength="83" x="199" y="330.4263">return region</text><polygon fill="#A80036" points="40,381.625,30,385.625,40,389.625,36,385.625" style="stroke: #A80036; stroke-width: 1.0;"/><line style="stroke: #A80036; stroke-width: 1.0;" x1="34" x2="176" y1="385.625" y2="385.625"/><text fill="#000000" font-family="sans-serif" font-size="13" lengthAdjust="spacingAndGlyphs" textLength="83" x="46" y="380.5591">return region</text><polygon fill="#A80036" points="160,410.7578,170,414.7578,160,418.7578,164,414.7578" style="stroke: #A80036; stroke-width: 1.0;"/><line style="stroke: #A80036; stroke-width: 1.0;" x1="29" x2="166" y1="414.7578" y2="414.7578"/><text fill="#000000" font-family="sans-serif" font-size="13" lengthAdjust="spacingAndGlyphs" textLength="124" x="36" y="409.6919">getConveyorRegion</text><path d="M93.5,429.7578 L170.5,429.7578 L170.5,436.7578 L160.5,446.7578 L93.5,446.7578 L93.5,429.7578 " fill="#EEEEEE" style="stroke: #000000; stroke-width: 1.0;"/><rect fill="none" height="106.5313" style="stroke: #000000; stroke-width: 2.0;" width="251.5" x="93.5" y="429.7578"/><text fill="#000000" font-family="sans-serif" font-size="13" font-weight="bold" lengthAdjust="spacingAndGlyphs" textLength="32" x="108.5" y="442.8247">loop</text><text fill="#000000" font-family="sans-serif" font-size="11" font-weight="bold" lengthAdjust="spacingAndGlyphs" textLength="78" x="185.5" y="441.9683">[all regions]</text><polygon fill="#A80036" points="277,464.0234,287,468.0234,277,472.0234,281,468.0234" style="stroke: #A80036; stroke-width: 1.0;"/><line style="stroke: #A80036; stroke-width: 1.0;" x1="182" x2="283" y1="468.0234" y2="468.0234"/><text fill="#000000" font-family="sans-serif" font-size="13" lengthAdjust="spacingAndGlyphs" textLength="83" x="189" y="462.9575">hasConveyor</text><path d="M103.5,483.0234 L167.5,483.0234 L167.5,490.0234 L157.5,500.0234 L103.5,500.0234 L103.5,483.0234 " fill="#EEEEEE" style="stroke: #000000; stroke-width: 1.0;"/><rect fill="none" height="46.2656" style="stroke: #000000; stroke-width: 2.0;" width="231.5" x="103.5" y="483.0234"/><text fill="#000000" font-family="sans-serif" font-size="13" font-weight="bold" lengthAdjust="spacingAndGlyphs" textLength="19" x="118.5" y="496.0903">alt</text><text fill="#000000" font-family="sans-serif" font-size="11" font-weight="bold" lengthAdjust="spacingAndGlyphs" textLength="36" x="182.5" y="495.2339">[true]</text><polygon fill="#A80036" points="193,517.2891,183,521.2891,193,525.2891,189,521.2891" style="stroke: #A80036; stroke-width: 1.0;"/><line style="stroke: #A80036; stroke-width: 1.0;" x1="187" x2="288" y1="521.2891" y2="521.2891"/><text fill="#000000" font-family="sans-serif" font-size="13" lengthAdjust="spacingAndGlyphs" textLength="83" x="199" y="516.2231">return region</text><polygon fill="#A80036" points="40,560.4219,30,564.4219,40,568.4219,36,564.4219" style="stroke: #A80036; stroke-width: 1.0;"/><line style="stroke: #A80036; stroke-width: 1.0;" x1="34" x2="176" y1="564.4219" y2="564.4219"/><text fill="#000000" font-family="sans-serif" font-size="13" lengthAdjust="spacingAndGlyphs" textLength="83" x="46" y="559.356">return region</text><!--MD5=[dbc6b4b9071fc8ae3d75aa4c058f9fa7]
@startuml

actor Actor as Actor

Actor -> RegionManager: getRegions

Actor -> RegionManager: getPartRegion
activate RegionManager

loop all regions
    RegionManager -> ":Region": hasPart
   
    loop all region conveyors
        ":Region" -> ":Conveyor": hasPart

        alt true
            ":Conveyor" -> ":Region": return true
            ":Region" -> "RegionManager": return region
        end
    end
end

RegionManager -> Actor: return region
deactivate RegionManager

Actor -> RegionManager: getConveyorRegion
activate RegionManager

loop all regions
    RegionManager -> ":Region": hasConveyor
   
    alt true
        ":Region" -> "RegionManager": return region
    end
end

RegionManager -> Actor: return region
deactivate RegionManager
@enduml

PlantUML version 1.2020.02(Sun Mar 01 10:22:07 GMT 2020)
(GPL source distribution)
Java Runtime: OpenJDK Runtime Environment
JVM: OpenJDK 64-Bit Server VM
Java Version: 11.0.9+11-Ubuntu-0ubuntu1
Operating System: Linux
Default Encoding: ANSI_X3.4-1968
Language: en
Country: US
--></g></svg>