<?xml version="1.0" encoding="UTF-8" standalone="no"?><svg xmlns="http://www.w3.org/2000/svg" xmlns:xlink="http://www.w3.org/1999/xlink" contentScriptType="application/ecmascript" contentStyleType="text/css" height="640px" preserveAspectRatio="none" style="width:474px;height:640px;" version="1.1" viewBox="0 0 474 640" width="474px" zoomAndPan="magnify"><defs><filter height="300%" id="f157gjk7bvqxx7" width="300%" x="-1" y="-1"><feGaussianBlur result="blurOut" stdDeviation="2.0"/><feColorMatrix in="blurOut" result="blurOut2" type="matrix" values="0 0 0 0 0 0 0 0 0 0 0 0 0 0 0 0 0 0 .4 0"/><feOffset dx="4.0" dy="4.0" in="blurOut2" result="blurOut3"/><feBlend in="SourceGraphic" in2="blurOut3" mode="normal"/></filter></defs><g><rect fill="#FFFFFF" filter="url(#f157gjk7bvqxx7)" height="239.0625" style="stroke: #383838; stroke-width: 1.0;" width="10" x="179" y="117.4297"/><rect fill="#FFFFFF" filter="url(#f157gjk7bvqxx7)" height="149.6641" style="stroke: #383838; stroke-width: 1.0;" width="10" x="179" y="385.625"/><rect fill="#FFFFFF" filter="url(#f157gjk7bvqxx7)" height="195.9297" style="stroke: #000000; stroke-width: 2.0;" width="372.5" x="90.5" y="132.4297"/><rect fill="#FFFFFF" filter="url(#f157gjk7bvqxx7)" height="135.6641" style="stroke: #000000; stroke-width: 2.0;" width="352.5" x="100.5" y="185.6953"/><rect fill="#FFFFFF" filter="url(#f157gjk7bvqxx7)" height="75.3984" style="stroke: #000000; stroke-width: 2.0;" width="332.5" x="110.5" y="238.9609"/><rect fill="#FFFFFF" filter="url(#f157gjk7bvqxx7)" height="106.5313" style="stroke: #000000; stroke-width: 2.0;" width="251.5" x="100.5" y="400.625"/><rect fill="#FFFFFF" filter="url(#f157gjk7bvqxx7)" height="46.2656" style="stroke: #000000; stroke-width: 2.0;" width="231.5" x="110.5" y="453.8906"/><line style="stroke: #383838; stroke-width: 1.0; stroke-dasharray: 5.0,5.0;" x1="36" x2="36" y1="86.2969" y2="553.2891"/><line style="stroke: #383838; stroke-width: 1.0; stroke-dasharray: 5.0,5.0;" x1="183.5" x2="183.5" y1="86.2969" y2="553.2891"/><line style="stroke: #383838; stroke-width: 1.0; stroke-dasharray: 5.0,5.0;" x1="296" x2="296" y1="86.2969" y2="553.2891"/><line style="stroke: #383838; stroke-width: 1.0; stroke-dasharray: 5.0,5.0;" x1="389" x2="389" y1="86.2969" y2="553.2891"/><text fill="#000000" font-family="sans-serif" font-size="14" lengthAdjust="spacingAndGlyphs" textLength="50" x="8" y="82.9951">Factory</text><ellipse cx="36" cy="13" fill="#F8F8F8" filter="url(#f157gjk7bvqxx7)" rx="8" ry="8" style="stroke: #383838; stroke-width: 2.0;"/><path d="M36,21 L36,48 M23,29 L49,29 M36,48 L23,63 M36,48 L49,63 " fill="none" filter="url(#f157gjk7bvqxx7)" style="stroke: #383838; stroke-width: 2.0;"/><text fill="#000000" font-family="sans-serif" font-size="14" lengthAdjust="spacingAndGlyphs" textLength="50" x="8" y="565.2842">Factory</text><ellipse cx="36" cy="578.5859" fill="#F8F8F8" filter="url(#f157gjk7bvqxx7)" rx="8" ry="8" style="stroke: #383838; stroke-width: 2.0;"/><path d="M36,586.5859 L36,613.5859 M23,594.5859 L49,594.5859 M36,613.5859 L23,628.5859 M36,613.5859 L49,628.5859 " fill="none" filter="url(#f157gjk7bvqxx7)" style="stroke: #383838; stroke-width: 2.0;"/><rect fill="#F8F8F8" filter="url(#f157gjk7bvqxx7)" height="30.2969" style="stroke: #383838; stroke-width: 1.5;" width="123" x="120.5" y="51"/><text fill="#000000" font-family="sans-serif" font-size="14" lengthAdjust="spacingAndGlyphs" textLength="109" x="127.5" y="70.9951">RegionManager</text><rect fill="#F8F8F8" filter="url(#f157gjk7bvqxx7)" height="30.2969" style="stroke: #383838; stroke-width: 1.5;" width="123" x="120.5" y="552.2891"/><text fill="#000000" font-family="sans-serif" font-size="14" lengthAdjust="spacingAndGlyphs" textLength="109" x="127.5" y="572.2842">RegionManager</text><rect fill="#F8F8F8" filter="url(#f157gjk7bvqxx7)" height="30.2969" style="stroke: #383838; stroke-width: 1.5;" width="68" x="260" y="51"/><text fill="#000000" font-family="sans-serif" font-size="14" lengthAdjust="spacingAndGlyphs" textLength="54" x="267" y="70.9951">:Region</text><rect fill="#F8F8F8" filter="url(#f157gjk7bvqxx7)" height="30.2969" style="stroke: #383838; stroke-width: 1.5;" width="68" x="260" y="552.2891"/><text fill="#000000" font-family="sans-serif" font-size="14" lengthAdjust="spacingAndGlyphs" textLength="54" x="267" y="572.2842">:Region</text><rect fill="#F8F8F8" filter="url(#f157gjk7bvqxx7)" height="30.2969" style="stroke: #383838; stroke-width: 1.5;" width="84" x="345" y="51"/><text fill="#000000" font-family="sans-serif" font-size="14" lengthAdjust="spacingAndGlyphs" textLength="70" x="352" y="70.9951">:Conveyor</text><rect fill="#F8F8F8" filter="url(#f157gjk7bvqxx7)" height="30.2969" style="stroke: #383838; stroke-width: 1.5;" width="84" x="345" y="552.2891"/><text fill="#000000" font-family="sans-serif" font-size="14" lengthAdjust="spacingAndGlyphs" textLength="70" x="352" y="572.2842">:Conveyor</text><rect fill="#FFFFFF" filter="url(#f157gjk7bvqxx7)" height="239.0625" style="stroke: #383838; stroke-width: 1.0;" width="10" x="179" y="117.4297"/><rect fill="#FFFFFF" filter="url(#f157gjk7bvqxx7)" height="149.6641" style="stroke: #383838; stroke-width: 1.0;" width="10" x="179" y="385.625"/><polygon fill="#383838" points="167,113.4297,177,117.4297,167,121.4297,171,117.4297" style="stroke: #383838; stroke-width: 1.0;"/><line style="stroke: #383838; stroke-width: 1.0;" x1="36" x2="173" y1="117.4297" y2="117.4297"/><text fill="#000000" font-family="sans-serif" font-size="13" lengthAdjust="spacingAndGlyphs" textLength="90" x="43" y="112.3638">getPartRegion</text><path d="M90.5,132.4297 L167.5,132.4297 L167.5,139.4297 L157.5,149.4297 L90.5,149.4297 L90.5,132.4297 " fill="#EEEEEE" style="stroke: #000000; stroke-width: 1.0;"/><rect fill="none" height="195.9297" style="stroke: #000000; stroke-width: 2.0;" width="372.5" x="90.5" y="132.4297"/><text fill="#000000" font-family="sans-serif" font-size="13" font-weight="bold" lengthAdjust="spacingAndGlyphs" textLength="32" x="105.5" y="145.4966">loop</text><text fill="#000000" font-family="sans-serif" font-size="11" font-weight="bold" lengthAdjust="spacingAndGlyphs" textLength="78" x="182.5" y="144.6401">[all regions]</text><polygon fill="#383838" points="284,166.6953,294,170.6953,284,174.6953,288,170.6953" style="stroke: #383838; stroke-width: 1.0;"/><line style="stroke: #383838; stroke-width: 1.0;" x1="189" x2="290" y1="170.6953" y2="170.6953"/><text fill="#000000" font-family="sans-serif" font-size="13" lengthAdjust="spacingAndGlyphs" textLength="49" x="196" y="165.6294">hasPart</text><path d="M100.5,185.6953 L177.5,185.6953 L177.5,192.6953 L167.5,202.6953 L100.5,202.6953 L100.5,185.6953 " fill="#EEEEEE" style="stroke: #000000; stroke-width: 1.0;"/><rect fill="none" height="135.6641" style="stroke: #000000; stroke-width: 2.0;" width="352.5" x="100.5" y="185.6953"/><text fill="#000000" font-family="sans-serif" font-size="13" font-weight="bold" lengthAdjust="spacingAndGlyphs" textLength="32" x="115.5" y="198.7622">loop</text><text fill="#000000" font-family="sans-serif" font-size="11" font-weight="bold" lengthAdjust="spacingAndGlyphs" textLength="140" x="192.5" y="197.9058">[all region conveyors]</text><polygon fill="#383838" points="377,219.9609,387,223.9609,377,227.9609,381,223.9609" style="stroke: #383838; stroke-width: 1.0;"/><line style="stroke: #383838; stroke-width: 1.0;" x1="296" x2="383" y1="223.9609" y2="223.9609"/><text fill="#000000" font-family="sans-serif" font-size="13" lengthAdjust="spacingAndGlyphs" textLength="49" x="303" y="218.895">hasPart</text><path d="M110.5,238.9609 L174.5,238.9609 L174.5,245.9609 L164.5,255.9609 L110.5,255.9609 L110.5,238.9609 " fill="#EEEEEE" style="stroke: #000000; stroke-width: 1.0;"/><rect fill="none" height="75.3984" style="stroke: #000000; stroke-width: 2.0;" width="332.5" x="110.5" y="238.9609"/><text fill="#000000" font-family="sans-serif" font-size="13" font-weight="bold" lengthAdjust="spacingAndGlyphs" textLength="19" x="125.5" y="252.0278">alt</text><text fill="#000000" font-family="sans-serif" font-size="11" font-weight="bold" lengthAdjust="spacingAndGlyphs" textLength="36" x="189.5" y="251.1714">[true]</text><polygon fill="#383838" points="307,273.2266,297,277.2266,307,281.2266,303,277.2266" style="stroke: #383838; stroke-width: 1.0;"/><line style="stroke: #383838; stroke-width: 1.0;" x1="301" x2="388" y1="277.2266" y2="277.2266"/><text fill="#000000" font-family="sans-serif" font-size="13" lengthAdjust="spacingAndGlyphs" textLength="69" x="313" y="272.1606">return true</text><polygon fill="#383838" points="200,302.3594,190,306.3594,200,310.3594,196,306.3594" style="stroke: #383838; stroke-width: 1.0;"/><line style="stroke: #383838; stroke-width: 1.0;" x1="194" x2="295" y1="306.3594" y2="306.3594"/><text fill="#000000" font-family="sans-serif" font-size="13" lengthAdjust="spacingAndGlyphs" textLength="83" x="206" y="301.2935">return region</text><polygon fill="#383838" points="47,352.4922,37,356.4922,47,360.4922,43,356.4922" style="stroke: #383838; stroke-width: 1.0;"/><line style="stroke: #383838; stroke-width: 1.0;" x1="41" x2="183" y1="356.4922" y2="356.4922"/><text fill="#000000" font-family="sans-serif" font-size="13" lengthAdjust="spacingAndGlyphs" textLength="83" x="53" y="351.4263">return region</text><polygon fill="#383838" points="167,381.625,177,385.625,167,389.625,171,385.625" style="stroke: #383838; stroke-width: 1.0;"/><line style="stroke: #383838; stroke-width: 1.0;" x1="36" x2="173" y1="385.625" y2="385.625"/><text fill="#000000" font-family="sans-serif" font-size="13" lengthAdjust="spacingAndGlyphs" textLength="124" x="43" y="380.5591">getConveyorRegion</text><path d="M100.5,400.625 L177.5,400.625 L177.5,407.625 L167.5,417.625 L100.5,417.625 L100.5,400.625 " fill="#EEEEEE" style="stroke: #000000; stroke-width: 1.0;"/><rect fill="none" height="106.5313" style="stroke: #000000; stroke-width: 2.0;" width="251.5" x="100.5" y="400.625"/><text fill="#000000" font-family="sans-serif" font-size="13" font-weight="bold" lengthAdjust="spacingAndGlyphs" textLength="32" x="115.5" y="413.6919">loop</text><text fill="#000000" font-family="sans-serif" font-size="11" font-weight="bold" lengthAdjust="spacingAndGlyphs" textLength="78" x="192.5" y="412.8354">[all regions]</text><polygon fill="#383838" points="284,434.8906,294,438.8906,284,442.8906,288,438.8906" style="stroke: #383838; stroke-width: 1.0;"/><line style="stroke: #383838; stroke-width: 1.0;" x1="189" x2="290" y1="438.8906" y2="438.8906"/><text fill="#000000" font-family="sans-serif" font-size="13" lengthAdjust="spacingAndGlyphs" textLength="83" x="196" y="433.8247">hasConveyor</text><path d="M110.5,453.8906 L174.5,453.8906 L174.5,460.8906 L164.5,470.8906 L110.5,470.8906 L110.5,453.8906 " fill="#EEEEEE" style="stroke: #000000; stroke-width: 1.0;"/><rect fill="none" height="46.2656" style="stroke: #000000; stroke-width: 2.0;" width="231.5" x="110.5" y="453.8906"/><text fill="#000000" font-family="sans-serif" font-size="13" font-weight="bold" lengthAdjust="spacingAndGlyphs" textLength="19" x="125.5" y="466.9575">alt</text><text fill="#000000" font-family="sans-serif" font-size="11" font-weight="bold" lengthAdjust="spacingAndGlyphs" textLength="36" x="189.5" y="466.1011">[true]</text><polygon fill="#383838" points="200,488.1563,190,492.1563,200,496.1563,196,492.1563" style="stroke: #383838; stroke-width: 1.0;"/><line style="stroke: #383838; stroke-width: 1.0;" x1="194" x2="295" y1="492.1563" y2="492.1563"/><text fill="#000000" font-family="sans-serif" font-size="13" lengthAdjust="spacingAndGlyphs" textLength="83" x="206" y="487.0903">return region</text><polygon fill="#383838" points="47,531.2891,37,535.2891,47,539.2891,43,535.2891" style="stroke: #383838; stroke-width: 1.0;"/><line style="stroke: #383838; stroke-width: 1.0;" x1="41" x2="183" y1="535.2891" y2="535.2891"/><text fill="#000000" font-family="sans-serif" font-size="13" lengthAdjust="spacingAndGlyphs" textLength="83" x="53" y="530.2231">return region</text><!--MD5=[6381ed6f31032789930e5aa3d253e0e7]
@startuml
skinparam linetype ortho
skinparam Monochrome true
skinparam classAttributeIconSize 0

actor Factory as Factory

Factory -> RegionManager: getPartRegion
activate RegionManager

loop all regions
    RegionManager -> ":Region": hasPart
   
    loop all region conveyors
        ":Region" -> ":Conveyor": hasPart

        alt true
            ":Conveyor" -> ":Region": return true
            ":Region" -> "RegionManager": return region
        end
    end
end

RegionManager -> Factory: return region
deactivate RegionManager

Factory -> RegionManager: getConveyorRegion
activate RegionManager

loop all regions
    RegionManager -> ":Region": hasConveyor
   
    alt true
        ":Region" -> "RegionManager": return region
    end
end

RegionManager -> Factory: return region
deactivate RegionManager
@enduml

PlantUML version 1.2020.02(Sun Mar 01 10:22:07 GMT 2020)
(GPL source distribution)
Java Runtime: OpenJDK Runtime Environment
JVM: OpenJDK 64-Bit Server VM
Java Version: 11.0.9+11-Ubuntu-0ubuntu1
Operating System: Linux
Default Encoding: ANSI_X3.4-1968
Language: en
Country: US
--></g></svg>