<?xml version="1.0" encoding="UTF-8" standalone="no"?><svg xmlns="http://www.w3.org/2000/svg" xmlns:xlink="http://www.w3.org/1999/xlink" contentScriptType="application/ecmascript" contentStyleType="text/css" height="594px" preserveAspectRatio="none" style="width:402px;height:594px;" version="1.1" viewBox="0 0 402 594" width="402px" zoomAndPan="magnify"><defs><filter height="300%" id="fetrxsmymbnoy" width="300%" x="-1" y="-1"><feGaussianBlur result="blurOut" stdDeviation="2.0"/><feColorMatrix in="blurOut" result="blurOut2" type="matrix" values="0 0 0 0 0 0 0 0 0 0 0 0 0 0 0 0 0 0 .4 0"/><feOffset dx="4.0" dy="4.0" in="blurOut2" result="blurOut3"/><feBlend in="SourceGraphic" in2="blurOut3" mode="normal"/></filter></defs><g><text fill="#000000" font-family="sans-serif" font-size="18" lengthAdjust="spacingAndGlyphs" textLength="325" x="39.25" y="26.708">Storage Manager Sequence Diagram</text><rect fill="#FFFFFF" filter="url(#fetrxsmymbnoy)" height="213.7344" style="stroke: #383838; stroke-width: 1.0;" width="10" x="155.5" y="152.3828"/><rect fill="#FFFFFF" filter="url(#fetrxsmymbnoy)" height="87.3984" style="stroke: #383838; stroke-width: 1.0;" width="10" x="155.5" y="402.25"/><rect fill="#FFFFFF" filter="url(#fetrxsmymbnoy)" height="29.1328" style="stroke: #383838; stroke-width: 1.0;" width="10" x="303.5" y="181.5156"/><rect fill="#FFFFFF" filter="url(#fetrxsmymbnoy)" height="29.1328" style="stroke: #383838; stroke-width: 1.0;" width="10" x="303.5" y="263.9141"/><rect fill="#FFFFFF" filter="url(#fetrxsmymbnoy)" height="29.1328" style="stroke: #383838; stroke-width: 1.0;" width="10" x="303.5" y="431.3828"/><rect fill="#FFFFFF" filter="url(#fetrxsmymbnoy)" height="148.4688" style="stroke: #000000; stroke-width: 2.0;" width="377.5" x="13" y="225.6484"/><rect fill="#FFFFFF" height="43.9375" style="stroke: none; stroke-width: 1.0;" width="377.5" x="13" y="330.1797"/><line style="stroke: #383838; stroke-width: 1.0; stroke-dasharray: 5.0,5.0;" x1="43" x2="43" y1="121.25" y2="507.6484"/><line style="stroke: #383838; stroke-width: 1.0; stroke-dasharray: 5.0,5.0;" x1="160.5" x2="160.5" y1="121.25" y2="507.6484"/><line style="stroke: #383838; stroke-width: 1.0; stroke-dasharray: 5.0,5.0;" x1="308.5" x2="308.5" y1="121.25" y2="507.6484"/><text fill="#000000" font-family="sans-serif" font-size="14" lengthAdjust="spacingAndGlyphs" textLength="35" x="23" y="117.9482">actor</text><ellipse cx="43.5" cy="47.9531" fill="#F8F8F8" filter="url(#fetrxsmymbnoy)" rx="8" ry="8" style="stroke: #383838; stroke-width: 2.0;"/><path d="M43.5,55.9531 L43.5,82.9531 M30.5,63.9531 L56.5,63.9531 M43.5,82.9531 L30.5,97.9531 M43.5,82.9531 L56.5,97.9531 " fill="none" filter="url(#fetrxsmymbnoy)" style="stroke: #383838; stroke-width: 2.0;"/><text fill="#000000" font-family="sans-serif" font-size="14" lengthAdjust="spacingAndGlyphs" textLength="35" x="23" y="519.6436">actor</text><ellipse cx="43.5" cy="532.9453" fill="#F8F8F8" filter="url(#fetrxsmymbnoy)" rx="8" ry="8" style="stroke: #383838; stroke-width: 2.0;"/><path d="M43.5,540.9453 L43.5,567.9453 M30.5,548.9453 L56.5,548.9453 M43.5,567.9453 L30.5,582.9453 M43.5,567.9453 L56.5,582.9453 " fill="none" filter="url(#fetrxsmymbnoy)" style="stroke: #383838; stroke-width: 2.0;"/><rect fill="#F8F8F8" filter="url(#fetrxsmymbnoy)" height="30.2969" style="stroke: #383838; stroke-width: 1.5;" width="128" x="94.5" y="85.9531"/><text fill="#000000" font-family="sans-serif" font-size="14" lengthAdjust="spacingAndGlyphs" textLength="114" x="101.5" y="105.9482">StorageManager</text><rect fill="#F8F8F8" filter="url(#fetrxsmymbnoy)" height="30.2969" style="stroke: #383838; stroke-width: 1.5;" width="128" x="94.5" y="506.6484"/><text fill="#000000" font-family="sans-serif" font-size="14" lengthAdjust="spacingAndGlyphs" textLength="114" x="101.5" y="526.6436">StorageManager</text><rect fill="#F8F8F8" filter="url(#fetrxsmymbnoy)" height="30.2969" style="stroke: #383838; stroke-width: 1.5;" width="140" x="236.5" y="85.9531"/><text fill="#000000" font-family="sans-serif" font-size="14" lengthAdjust="spacingAndGlyphs" textLength="126" x="243.5" y="105.9482">DatabaseManager</text><rect fill="#F8F8F8" filter="url(#fetrxsmymbnoy)" height="30.2969" style="stroke: #383838; stroke-width: 1.5;" width="140" x="236.5" y="506.6484"/><text fill="#000000" font-family="sans-serif" font-size="14" lengthAdjust="spacingAndGlyphs" textLength="126" x="243.5" y="526.6436">DatabaseManager</text><rect fill="#FFFFFF" filter="url(#fetrxsmymbnoy)" height="213.7344" style="stroke: #383838; stroke-width: 1.0;" width="10" x="155.5" y="152.3828"/><rect fill="#FFFFFF" filter="url(#fetrxsmymbnoy)" height="87.3984" style="stroke: #383838; stroke-width: 1.0;" width="10" x="155.5" y="402.25"/><rect fill="#FFFFFF" filter="url(#fetrxsmymbnoy)" height="29.1328" style="stroke: #383838; stroke-width: 1.0;" width="10" x="303.5" y="181.5156"/><rect fill="#FFFFFF" filter="url(#fetrxsmymbnoy)" height="29.1328" style="stroke: #383838; stroke-width: 1.0;" width="10" x="303.5" y="263.9141"/><rect fill="#FFFFFF" filter="url(#fetrxsmymbnoy)" height="29.1328" style="stroke: #383838; stroke-width: 1.0;" width="10" x="303.5" y="431.3828"/><polygon fill="#383838" points="143.5,148.3828,153.5,152.3828,143.5,156.3828,147.5,152.3828" style="stroke: #383838; stroke-width: 1.0;"/><line style="stroke: #383838; stroke-width: 1.0;" x1="43.5" x2="149.5" y1="152.3828" y2="152.3828"/><text fill="#000000" font-family="sans-serif" font-size="13" lengthAdjust="spacingAndGlyphs" textLength="45" x="50.5" y="147.3169">extract</text><polygon fill="#383838" points="291.5,177.5156,301.5,181.5156,291.5,185.5156,295.5,181.5156" style="stroke: #383838; stroke-width: 1.0;"/><line style="stroke: #383838; stroke-width: 1.0;" x1="165.5" x2="297.5" y1="181.5156" y2="181.5156"/><text fill="#000000" font-family="sans-serif" font-size="13" lengthAdjust="spacingAndGlyphs" textLength="75" x="172.5" y="176.4497">getQuantity</text><polygon fill="#383838" points="176.5,206.6484,166.5,210.6484,176.5,214.6484,172.5,210.6484" style="stroke: #383838; stroke-width: 1.0;"/><line style="stroke: #383838; stroke-width: 1.0;" x1="170.5" x2="307.5" y1="210.6484" y2="210.6484"/><text fill="#000000" font-family="sans-serif" font-size="13" lengthAdjust="spacingAndGlyphs" textLength="97" x="182.5" y="205.5825">return Quantity</text><path d="M13,225.6484 L77,225.6484 L77,232.6484 L67,242.6484 L13,242.6484 L13,225.6484 " fill="#EEEEEE" style="stroke: #000000; stroke-width: 1.0;"/><rect fill="none" height="148.4688" style="stroke: #000000; stroke-width: 2.0;" width="377.5" x="13" y="225.6484"/><text fill="#000000" font-family="sans-serif" font-size="13" font-weight="bold" lengthAdjust="spacingAndGlyphs" textLength="19" x="28" y="238.7153">alt</text><text fill="#000000" font-family="sans-serif" font-size="11" font-weight="bold" lengthAdjust="spacingAndGlyphs" textLength="110" x="92" y="237.8589">[PartNumber &gt; 0]</text><polygon fill="#383838" points="291.5,259.9141,301.5,263.9141,291.5,267.9141,295.5,263.9141" style="stroke: #383838; stroke-width: 1.0;"/><line style="stroke: #383838; stroke-width: 1.0;" x1="165.5" x2="297.5" y1="263.9141" y2="263.9141"/><text fill="#000000" font-family="sans-serif" font-size="13" lengthAdjust="spacingAndGlyphs" textLength="45" x="172.5" y="258.8481">update</text><polygon fill="#383838" points="176.5,289.0469,166.5,293.0469,176.5,297.0469,172.5,293.0469" style="stroke: #383838; stroke-width: 1.0;"/><line style="stroke: #383838; stroke-width: 1.0;" x1="170.5" x2="307.5" y1="293.0469" y2="293.0469"/><text fill="#000000" font-family="sans-serif" font-size="13" lengthAdjust="spacingAndGlyphs" textLength="69" x="182.5" y="287.981">return true</text><polygon fill="#383838" points="54.5,318.1797,44.5,322.1797,54.5,326.1797,50.5,322.1797" style="stroke: #383838; stroke-width: 1.0;"/><line style="stroke: #383838; stroke-width: 1.0;" x1="48.5" x2="154.5" y1="322.1797" y2="322.1797"/><text fill="#000000" font-family="sans-serif" font-size="13" lengthAdjust="spacingAndGlyphs" textLength="88" x="60.5" y="317.1138">return Extract</text><line style="stroke: #000000; stroke-width: 1.0; stroke-dasharray: 2.0,2.0;" x1="13" x2="390.5" y1="331.1797" y2="331.1797"/><text fill="#000000" font-family="sans-serif" font-size="11" font-weight="bold" lengthAdjust="spacingAndGlyphs" textLength="37" x="18" y="341.3901">[else]</text><polygon fill="#383838" points="54.5,362.1172,44.5,366.1172,54.5,370.1172,50.5,366.1172" style="stroke: #383838; stroke-width: 1.0;"/><line style="stroke: #383838; stroke-width: 1.0;" x1="48.5" x2="159.5" y1="366.1172" y2="366.1172"/><text fill="#000000" font-family="sans-serif" font-size="13" lengthAdjust="spacingAndGlyphs" textLength="77" x="60.5" y="361.0513">return failed</text><polygon fill="#383838" points="143.5,398.25,153.5,402.25,143.5,406.25,147.5,402.25" style="stroke: #383838; stroke-width: 1.0;"/><line style="stroke: #383838; stroke-width: 1.0;" x1="43.5" x2="149.5" y1="402.25" y2="402.25"/><text fill="#000000" font-family="sans-serif" font-size="13" lengthAdjust="spacingAndGlyphs" textLength="33" x="50.5" y="397.1841">store</text><polygon fill="#383838" points="291.5,427.3828,301.5,431.3828,291.5,435.3828,295.5,431.3828" style="stroke: #383838; stroke-width: 1.0;"/><line style="stroke: #383838; stroke-width: 1.0;" x1="165.5" x2="297.5" y1="431.3828" y2="431.3828"/><text fill="#000000" font-family="sans-serif" font-size="13" lengthAdjust="spacingAndGlyphs" textLength="45" x="172.5" y="426.3169">update</text><polygon fill="#383838" points="176.5,456.5156,166.5,460.5156,176.5,464.5156,172.5,460.5156" style="stroke: #383838; stroke-width: 1.0;"/><line style="stroke: #383838; stroke-width: 1.0;" x1="170.5" x2="307.5" y1="460.5156" y2="460.5156"/><text fill="#000000" font-family="sans-serif" font-size="13" lengthAdjust="spacingAndGlyphs" textLength="69" x="182.5" y="455.4497">return true</text><polygon fill="#383838" points="54.5,485.6484,44.5,489.6484,54.5,493.6484,50.5,489.6484" style="stroke: #383838; stroke-width: 1.0;"/><line style="stroke: #383838; stroke-width: 1.0;" x1="48.5" x2="159.5" y1="489.6484" y2="489.6484"/><text fill="#000000" font-family="sans-serif" font-size="13" lengthAdjust="spacingAndGlyphs" textLength="76" x="60.5" y="484.5825">return store</text><!--MD5=[5837f11296ac52934268c0ed07772189]
@startuml
skinparam linetype ortho
skinparam Monochrome true
skinparam classAttributeIconSize 0

title Storage Manager Sequence Diagram
actor actor 

actor->StorageManager: extract
activate StorageManager

StorageManager -> DatabaseManager: getQuantity
activate DatabaseManager
DatabaseManager -> StorageManager: return Quantity
deactivate DatabaseManager

alt PartNumber > 0
StorageManager -> DatabaseManager: update
activate DatabaseManager
DatabaseManager -> StorageManager: return true
deactivate DatabaseManager

StorageManager -> actor: return Extract
 

else else

    StorageManager -> actor: return failed
    deactivate StorageManager
    end


actor->StorageManager: store
activate StorageManager

StorageManager -> DatabaseManager: update
activate DatabaseManager
DatabaseManager -> StorageManager: return true
deactivate DatabaseManager

StorageManager -> actor: return store
deactivate StorageManager


@enduml

PlantUML version 1.2020.02(Sun Mar 01 10:22:07 GMT 2020)
(GPL source distribution)
Java Runtime: OpenJDK Runtime Environment
JVM: OpenJDK 64-Bit Server VM
Java Version: 11.0.9+11-Ubuntu-0ubuntu1
Operating System: Linux
Default Encoding: ANSI_X3.4-1968
Language: en
Country: US
--></g></svg>