<?xml version="1.0" encoding="UTF-8" standalone="no"?><svg xmlns="http://www.w3.org/2000/svg" xmlns:xlink="http://www.w3.org/1999/xlink" contentScriptType="application/ecmascript" contentStyleType="text/css" height="594px" preserveAspectRatio="none" style="width:416px;height:594px;" version="1.1" viewBox="0 0 416 594" width="416px" zoomAndPan="magnify"><defs><filter height="300%" id="f1c5ukcd5qrhvu" width="300%" x="-1" y="-1"><feGaussianBlur result="blurOut" stdDeviation="2.0"/><feColorMatrix in="blurOut" result="blurOut2" type="matrix" values="0 0 0 0 0 0 0 0 0 0 0 0 0 0 0 0 0 0 .4 0"/><feOffset dx="4.0" dy="4.0" in="blurOut2" result="blurOut3"/><feBlend in="SourceGraphic" in2="blurOut3" mode="normal"/></filter></defs><g><text fill="#000000" font-family="sans-serif" font-size="18" lengthAdjust="spacingAndGlyphs" textLength="325" x="46" y="26.708">Storage Manager Sequence Diagram</text><rect fill="#FFFFFF" filter="url(#f1c5ukcd5qrhvu)" height="213.7344" style="stroke: #383838; stroke-width: 1.0;" width="10" x="169" y="152.3828"/><rect fill="#FFFFFF" filter="url(#f1c5ukcd5qrhvu)" height="87.3984" style="stroke: #383838; stroke-width: 1.0;" width="10" x="169" y="402.25"/><rect fill="#FFFFFF" filter="url(#f1c5ukcd5qrhvu)" height="29.1328" style="stroke: #383838; stroke-width: 1.0;" width="10" x="317" y="181.5156"/><rect fill="#FFFFFF" filter="url(#f1c5ukcd5qrhvu)" height="29.1328" style="stroke: #383838; stroke-width: 1.0;" width="10" x="317" y="263.9141"/><rect fill="#FFFFFF" filter="url(#f1c5ukcd5qrhvu)" height="29.1328" style="stroke: #383838; stroke-width: 1.0;" width="10" x="317" y="431.3828"/><rect fill="#FFFFFF" filter="url(#f1c5ukcd5qrhvu)" height="148.4688" style="stroke: #000000; stroke-width: 2.0;" width="391" x="13" y="225.6484"/><rect fill="#FFFFFF" height="43.9375" style="stroke: none; stroke-width: 1.0;" width="391" x="13" y="330.1797"/><line style="stroke: #383838; stroke-width: 1.0; stroke-dasharray: 5.0,5.0;" x1="51" x2="51" y1="121.25" y2="507.6484"/><line style="stroke: #383838; stroke-width: 1.0; stroke-dasharray: 5.0,5.0;" x1="174" x2="174" y1="121.25" y2="507.6484"/><line style="stroke: #383838; stroke-width: 1.0; stroke-dasharray: 5.0,5.0;" x1="322" x2="322" y1="121.25" y2="507.6484"/><text fill="#000000" font-family="sans-serif" font-size="14" lengthAdjust="spacingAndGlyphs" textLength="50" x="23" y="117.9482">Factory</text><ellipse cx="51" cy="47.9531" fill="#F8F8F8" filter="url(#f1c5ukcd5qrhvu)" rx="8" ry="8" style="stroke: #383838; stroke-width: 2.0;"/><path d="M51,55.9531 L51,82.9531 M38,63.9531 L64,63.9531 M51,82.9531 L38,97.9531 M51,82.9531 L64,97.9531 " fill="none" filter="url(#f1c5ukcd5qrhvu)" style="stroke: #383838; stroke-width: 2.0;"/><text fill="#000000" font-family="sans-serif" font-size="14" lengthAdjust="spacingAndGlyphs" textLength="50" x="23" y="519.6436">Factory</text><ellipse cx="51" cy="532.9453" fill="#F8F8F8" filter="url(#f1c5ukcd5qrhvu)" rx="8" ry="8" style="stroke: #383838; stroke-width: 2.0;"/><path d="M51,540.9453 L51,567.9453 M38,548.9453 L64,548.9453 M51,567.9453 L38,582.9453 M51,567.9453 L64,582.9453 " fill="none" filter="url(#f1c5ukcd5qrhvu)" style="stroke: #383838; stroke-width: 2.0;"/><rect fill="#F8F8F8" filter="url(#f1c5ukcd5qrhvu)" height="30.2969" style="stroke: #383838; stroke-width: 1.5;" width="128" x="108" y="85.9531"/><text fill="#000000" font-family="sans-serif" font-size="14" lengthAdjust="spacingAndGlyphs" textLength="114" x="115" y="105.9482">StorageManager</text><rect fill="#F8F8F8" filter="url(#f1c5ukcd5qrhvu)" height="30.2969" style="stroke: #383838; stroke-width: 1.5;" width="128" x="108" y="506.6484"/><text fill="#000000" font-family="sans-serif" font-size="14" lengthAdjust="spacingAndGlyphs" textLength="114" x="115" y="526.6436">StorageManager</text><rect fill="#F8F8F8" filter="url(#f1c5ukcd5qrhvu)" height="30.2969" style="stroke: #383838; stroke-width: 1.5;" width="140" x="250" y="85.9531"/><text fill="#000000" font-family="sans-serif" font-size="14" lengthAdjust="spacingAndGlyphs" textLength="126" x="257" y="105.9482">DatabaseManager</text><rect fill="#F8F8F8" filter="url(#f1c5ukcd5qrhvu)" height="30.2969" style="stroke: #383838; stroke-width: 1.5;" width="140" x="250" y="506.6484"/><text fill="#000000" font-family="sans-serif" font-size="14" lengthAdjust="spacingAndGlyphs" textLength="126" x="257" y="526.6436">DatabaseManager</text><rect fill="#FFFFFF" filter="url(#f1c5ukcd5qrhvu)" height="213.7344" style="stroke: #383838; stroke-width: 1.0;" width="10" x="169" y="152.3828"/><rect fill="#FFFFFF" filter="url(#f1c5ukcd5qrhvu)" height="87.3984" style="stroke: #383838; stroke-width: 1.0;" width="10" x="169" y="402.25"/><rect fill="#FFFFFF" filter="url(#f1c5ukcd5qrhvu)" height="29.1328" style="stroke: #383838; stroke-width: 1.0;" width="10" x="317" y="181.5156"/><rect fill="#FFFFFF" filter="url(#f1c5ukcd5qrhvu)" height="29.1328" style="stroke: #383838; stroke-width: 1.0;" width="10" x="317" y="263.9141"/><rect fill="#FFFFFF" filter="url(#f1c5ukcd5qrhvu)" height="29.1328" style="stroke: #383838; stroke-width: 1.0;" width="10" x="317" y="431.3828"/><polygon fill="#383838" points="157,148.3828,167,152.3828,157,156.3828,161,152.3828" style="stroke: #383838; stroke-width: 1.0;"/><line style="stroke: #383838; stroke-width: 1.0;" x1="51" x2="163" y1="152.3828" y2="152.3828"/><text fill="#000000" font-family="sans-serif" font-size="13" lengthAdjust="spacingAndGlyphs" textLength="45" x="58" y="147.3169">extract</text><polygon fill="#383838" points="305,177.5156,315,181.5156,305,185.5156,309,181.5156" style="stroke: #383838; stroke-width: 1.0;"/><line style="stroke: #383838; stroke-width: 1.0;" x1="179" x2="311" y1="181.5156" y2="181.5156"/><text fill="#000000" font-family="sans-serif" font-size="13" lengthAdjust="spacingAndGlyphs" textLength="75" x="186" y="176.4497">getQuantity</text><polygon fill="#383838" points="190,206.6484,180,210.6484,190,214.6484,186,210.6484" style="stroke: #383838; stroke-width: 1.0;"/><line style="stroke: #383838; stroke-width: 1.0;" x1="184" x2="321" y1="210.6484" y2="210.6484"/><text fill="#000000" font-family="sans-serif" font-size="13" lengthAdjust="spacingAndGlyphs" textLength="97" x="196" y="205.5825">return Quantity</text><path d="M13,225.6484 L77,225.6484 L77,232.6484 L67,242.6484 L13,242.6484 L13,225.6484 " fill="#EEEEEE" style="stroke: #000000; stroke-width: 1.0;"/><rect fill="none" height="148.4688" style="stroke: #000000; stroke-width: 2.0;" width="391" x="13" y="225.6484"/><text fill="#000000" font-family="sans-serif" font-size="13" font-weight="bold" lengthAdjust="spacingAndGlyphs" textLength="19" x="28" y="238.7153">alt</text><text fill="#000000" font-family="sans-serif" font-size="11" font-weight="bold" lengthAdjust="spacingAndGlyphs" textLength="110" x="92" y="237.8589">[PartNumber &gt; 0]</text><polygon fill="#383838" points="305,259.9141,315,263.9141,305,267.9141,309,263.9141" style="stroke: #383838; stroke-width: 1.0;"/><line style="stroke: #383838; stroke-width: 1.0;" x1="179" x2="311" y1="263.9141" y2="263.9141"/><text fill="#000000" font-family="sans-serif" font-size="13" lengthAdjust="spacingAndGlyphs" textLength="45" x="186" y="258.8481">update</text><polygon fill="#383838" points="190,289.0469,180,293.0469,190,297.0469,186,293.0469" style="stroke: #383838; stroke-width: 1.0;"/><line style="stroke: #383838; stroke-width: 1.0;" x1="184" x2="321" y1="293.0469" y2="293.0469"/><text fill="#000000" font-family="sans-serif" font-size="13" lengthAdjust="spacingAndGlyphs" textLength="94" x="196" y="287.981">return success</text><polygon fill="#383838" points="62,318.1797,52,322.1797,62,326.1797,58,322.1797" style="stroke: #383838; stroke-width: 1.0;"/><line style="stroke: #383838; stroke-width: 1.0;" x1="56" x2="168" y1="322.1797" y2="322.1797"/><text fill="#000000" font-family="sans-serif" font-size="13" lengthAdjust="spacingAndGlyphs" textLength="73" x="68" y="317.1138">return :Part</text><line style="stroke: #000000; stroke-width: 1.0; stroke-dasharray: 2.0,2.0;" x1="13" x2="404" y1="331.1797" y2="331.1797"/><text fill="#000000" font-family="sans-serif" font-size="11" font-weight="bold" lengthAdjust="spacingAndGlyphs" textLength="37" x="18" y="341.3901">[else]</text><polygon fill="#383838" points="62,362.1172,52,366.1172,62,370.1172,58,366.1172" style="stroke: #383838; stroke-width: 1.0;"/><line style="stroke: #383838; stroke-width: 1.0;" x1="56" x2="173" y1="366.1172" y2="366.1172"/><text fill="#000000" font-family="sans-serif" font-size="13" lengthAdjust="spacingAndGlyphs" textLength="77" x="68" y="361.0513">return failed</text><polygon fill="#383838" points="157,398.25,167,402.25,157,406.25,161,402.25" style="stroke: #383838; stroke-width: 1.0;"/><line style="stroke: #383838; stroke-width: 1.0;" x1="51" x2="163" y1="402.25" y2="402.25"/><text fill="#000000" font-family="sans-serif" font-size="13" lengthAdjust="spacingAndGlyphs" textLength="33" x="58" y="397.1841">store</text><polygon fill="#383838" points="305,427.3828,315,431.3828,305,435.3828,309,431.3828" style="stroke: #383838; stroke-width: 1.0;"/><line style="stroke: #383838; stroke-width: 1.0;" x1="179" x2="311" y1="431.3828" y2="431.3828"/><text fill="#000000" font-family="sans-serif" font-size="13" lengthAdjust="spacingAndGlyphs" textLength="45" x="186" y="426.3169">update</text><polygon fill="#383838" points="190,456.5156,180,460.5156,190,464.5156,186,460.5156" style="stroke: #383838; stroke-width: 1.0;"/><line style="stroke: #383838; stroke-width: 1.0;" x1="184" x2="321" y1="460.5156" y2="460.5156"/><text fill="#000000" font-family="sans-serif" font-size="13" lengthAdjust="spacingAndGlyphs" textLength="94" x="196" y="455.4497">return success</text><polygon fill="#383838" points="62,485.6484,52,489.6484,62,493.6484,58,489.6484" style="stroke: #383838; stroke-width: 1.0;"/><line style="stroke: #383838; stroke-width: 1.0;" x1="56" x2="173" y1="489.6484" y2="489.6484"/><text fill="#000000" font-family="sans-serif" font-size="13" lengthAdjust="spacingAndGlyphs" textLength="94" x="68" y="484.5825">return success</text><!--MD5=[68091a975c139fdf884e147055c185ed]
@startuml
skinparam linetype ortho
skinparam Monochrome true
skinparam classAttributeIconSize 0

title Storage Manager Sequence Diagram
Actor Factory 

Factory->StorageManager: extract
activate StorageManager

StorageManager -> DatabaseManager: getQuantity
activate DatabaseManager
DatabaseManager -> StorageManager: return Quantity
deactivate DatabaseManager

alt PartNumber > 0
StorageManager -> DatabaseManager: update
activate DatabaseManager
DatabaseManager -> StorageManager: return success
deactivate DatabaseManager

StorageManager -> Factory: return :Part
 

else else

    StorageManager -> Factory: return failed
    deactivate StorageManager
    end


Factory->StorageManager: store
activate StorageManager

StorageManager -> DatabaseManager: update
activate DatabaseManager
DatabaseManager -> StorageManager: return success
deactivate DatabaseManager

StorageManager -> Factory: return success
deactivate StorageManager


@enduml

PlantUML version 1.2020.02(Sun Mar 01 10:22:07 GMT 2020)
(GPL source distribution)
Java Runtime: OpenJDK Runtime Environment
JVM: OpenJDK 64-Bit Server VM
Java Version: 11.0.9+11-Ubuntu-0ubuntu1
Operating System: Linux
Default Encoding: ANSI_X3.4-1968
Language: en
Country: US
--></g></svg>